<svg width="1000" height="1000" viewBox="0 0 1000 1000" fill="none" xmlns="http://www.w3.org/2000/svg">
<rect width="1000" height="1000" rx="500" fill="currentColor"/>
<path d="M302.172 349.493C314.886 402.262 387.542 407.735 405.69 354.942C407.503 354.942 411.128 356.758 422.029 353.125C447.455 382.234 492.874 378.601 511.022 344.02C529.173 371.312 565.5 380.417 596.392 362.206C632.719 385.866 681.761 360.39 681.761 316.703C681.761 280.305 647.247 253.012 610.917 265.75C594.578 247.564 569.152 240.274 543.727 247.564C525.575 223.904 492.874 218.455 467.447 236.642C440.208 200.244 387.544 196.611 356.651 229.353C320.324 214.798 282.182 242.091 282.182 280.305C234.954 280.305 234.954 353.103 282.182 353.103C289.458 354.969 296.735 353.125 302.172 349.493Z" fill="white"/>
<path d="M681.96 427.365H645.574V407.305C631.025 410.943 612.82 409.124 596.455 403.667C569.171 412.788 538.232 410.968 512.761 394.547C485.477 412.763 450.907 414.606 421.809 398.185C381.817 440.123 314.494 436.485 281.761 390.909V718.994C281.761 759.089 314.516 791.909 354.536 791.909H572.827C612.845 791.909 645.601 759.091 645.601 718.994H681.987C722.005 718.994 754.761 686.176 754.761 646.079V500.281C754.737 460.186 721.981 427.365 681.96 427.365ZM372.717 700.773C372.717 711.712 365.43 718.989 354.536 718.989C343.618 718.989 336.356 711.688 336.356 700.773V500.273C336.356 489.334 343.643 482.057 354.536 482.057C365.454 482.057 372.717 489.358 372.717 500.273V700.773ZM481.879 700.773C481.879 711.712 474.592 718.989 463.698 718.989C452.78 718.989 445.517 711.688 445.517 700.773V500.273C445.517 489.334 452.804 482.057 463.698 482.057C474.616 482.057 481.879 489.358 481.879 500.273V700.773ZM591.015 700.773C591.015 711.712 583.728 718.989 572.834 718.989C561.916 718.989 554.653 711.688 554.653 700.773V500.273C554.653 489.334 561.94 482.057 572.834 482.057C583.752 482.057 591.015 489.358 591.015 500.273V700.773ZM718.354 646.076C718.354 666.136 701.989 682.533 681.968 682.533H645.582V463.82H681.968C701.989 463.82 718.354 480.216 718.354 500.276V646.076Z" fill="white"/>
</svg>
