<svg width="1200" height="1200" viewBox="0 0 1200 1200" fill="none" xmlns="http://www.w3.org/2000/svg">
<g filter="url(#filter0_d_83_12)">
<rect x="100" width="1000" height="1000" rx="500" fill="currentColor" shape-rendering="crispEdges"/>
<path d="M402.172 349.493C414.886 402.262 487.542 407.735 505.69 354.942C507.503 354.942 511.128 356.758 522.029 353.125C547.455 382.234 592.874 378.601 611.022 344.02C629.173 371.312 665.5 380.417 696.392 362.206C732.719 385.866 781.761 360.39 781.761 316.703C781.761 280.305 747.247 253.012 710.917 265.75C694.578 247.564 669.152 240.274 643.727 247.564C625.575 223.904 592.874 218.455 567.447 236.642C540.208 200.244 487.544 196.611 456.651 229.353C420.324 214.798 382.182 242.091 382.182 280.305C334.954 280.305 334.954 353.103 382.182 353.103C389.458 354.969 396.735 353.125 402.172 349.493Z" fill="white"/>
<path d="M781.96 427.365H745.575V407.305C731.025 410.943 712.82 409.124 696.455 403.667C669.171 412.788 638.232 410.968 612.761 394.547C585.477 412.763 550.907 414.606 521.809 398.185C481.817 440.123 414.494 436.485 381.761 390.909V718.994C381.761 759.089 414.516 791.909 454.536 791.909H672.827C712.845 791.909 745.601 759.091 745.601 718.994H781.987C822.005 718.994 854.761 686.176 854.761 646.079V500.281C854.737 460.186 821.981 427.365 781.96 427.365ZM472.717 700.773C472.717 711.713 465.43 718.989 454.536 718.989C443.618 718.989 436.356 711.688 436.356 700.773V500.273C436.356 489.334 443.643 482.057 454.536 482.057C465.454 482.057 472.717 489.358 472.717 500.273V700.773ZM581.879 700.773C581.879 711.713 574.592 718.989 563.698 718.989C552.78 718.989 545.517 711.688 545.517 700.773V500.273C545.517 489.334 552.804 482.057 563.698 482.057C574.616 482.057 581.879 489.358 581.879 500.273V700.773ZM691.015 700.773C691.015 711.713 683.728 718.989 672.834 718.989C661.916 718.989 654.653 711.688 654.653 700.773V500.273C654.653 489.334 661.94 482.057 672.834 482.057C683.752 482.057 691.015 489.358 691.015 500.273V700.773ZM818.354 646.076C818.354 666.136 801.989 682.533 781.968 682.533H745.582V463.82H781.968C801.989 463.82 818.354 480.216 818.354 500.276V646.076Z" fill="white"/>
</g>
<defs>
<filter id="filter0_d_83_12" x="0" y="0" width="1200" height="1200" filterUnits="userSpaceOnUse" color-interpolation-filters="sRGB">
<feFlood flood-opacity="0" result="BackgroundImageFix"/>
<feColorMatrix in="SourceAlpha" type="matrix" values="0 0 0 0 0 0 0 0 0 0 0 0 0 0 0 0 0 0 127 0" result="hardAlpha"/>
<feOffset dy="100"/>
<feGaussianBlur stdDeviation="50"/>
<feComposite in2="hardAlpha" operator="out"/>
<feColorMatrix type="matrix" values="0 0 0 0 0 0 0 0 0 0 0 0 0 0 0 0 0 0 0.5 0"/>
<feBlend mode="multiply" in2="BackgroundImageFix" result="effect1_dropShadow_83_12"/>
<feBlend mode="normal" in="SourceGraphic" in2="effect1_dropShadow_83_12" result="shape"/>
</filter>
</defs>
</svg>
