<svg width="1000" height="1000" viewBox="0 0 1000 1000" fill="none" xmlns="http://www.w3.org/2000/svg">
<rect width="1000" height="1000" rx="500" fill="currentColor"/>
<path d="M265.109 290.936C268.452 290.936 272.339 292.043 275.118 294.822L660.849 680.553L660.856 680.561C673.644 693.349 674.187 715.039 662.549 728.392C662.549 728.951 661.994 728.956 661.985 728.956C661.425 728.956 661.42 729.511 661.42 729.521C654.755 735.622 646.417 738.965 638.08 738.965C629.2 738.965 620.297 735.622 613.632 728.956C611.949 727.81 504.678 594.425 471.33 553.305C465.23 546.075 456.892 541.623 447.99 541.623C326.248 538.277 252.885 333.187 250.106 307.611C248.999 298.166 256.771 290.936 265.109 290.936ZM430.185 553.821C435.743 554.929 441.301 555.493 447.424 555.493C451.853 555.493 456.306 557.733 459.107 561.619C461.885 564.963 464.1 568.286 466.879 571.629C414.645 632.767 333.489 727.251 332.375 728.365C319.022 741.696 296.789 741.696 283.458 728.365C270.127 715.012 270.127 692.779 283.458 679.448C284.57 678.332 369.046 606.08 430.185 553.821ZM641.397 266.462C646.955 260.904 656.4 260.339 662.523 265.898C669.21 271.998 669.21 281.443 663.087 287.566L583.599 367.054C578.041 372.612 577.476 381.514 583.034 387.072C588.05 393.195 597.495 393.195 603.053 387.637L682.52 307.61C688.078 302.052 697.522 301.487 703.645 307.045C710.332 313.146 710.332 322.59 704.209 328.713L624.721 408.201C619.163 413.76 618.598 422.662 624.156 428.22C629.172 434.343 638.617 434.343 644.175 428.784L724.202 349.296C729.761 343.738 739.205 343.173 745.328 348.732L745.335 348.73C751.458 354.288 751.458 364.296 745.9 370.398L666.411 449.886C663.065 453.23 631.388 484.908 584.144 486.015H580.258C555.811 487.122 533.577 498.238 516.338 515.478L496.884 496.024C514.123 479.349 524.675 456.551 526.347 432.104V428.218C527.454 380.972 559.132 349.295 562.476 345.95L641.397 266.462Z" fill="white"/>
</svg>
