<svg width="1200" height="1200" viewBox="0 0 1200 1200" fill="none" xmlns="http://www.w3.org/2000/svg">
<g filter="url(#filter0_d_90_18)">
<rect x="100" width="1000" height="1000" rx="500" fill="currentColor" shape-rendering="crispEdges"/>
<path d="M640.325 258.699C645.176 252.263 653.929 250.152 661.205 253.739C668.481 257.221 672.172 265.451 670.063 273.259L622.926 448.089H749.783C756.11 448.089 762.016 451.782 764.863 457.48C767.71 463.282 767.078 470.143 763.281 475.207L563.661 740.247C560.391 744.679 555.329 747 550.162 747C547.632 747 545.101 746.472 542.781 745.312C535.505 741.83 531.814 733.6 533.923 725.792L581.06 550.854H454.203C447.876 550.854 441.97 547.267 439.123 541.464C436.276 535.661 436.803 528.803 440.705 523.738L640.325 258.699Z" fill="white"/>
<path d="M825.626 333.307C866.596 333.307 899.852 366.585 899.852 407.573V418.02C930.286 424.703 953 451.92 953 484.279V514.771C953 547.177 930.248 574.271 899.852 580.928V591.372C899.852 632.281 866.568 665.533 825.626 665.533H710.053C698.295 665.533 688.763 655.996 688.763 644.233C688.763 632.47 698.295 622.934 710.053 622.934H825.626C843.103 622.934 857.272 608.704 857.272 591.372V539.897H885.311C899.175 539.897 910.42 528.649 910.42 514.771V484.279C910.42 470.338 899.113 459.048 885.311 459.048H857.272V407.573C857.272 390.108 843.076 375.906 825.626 375.906H715.22C703.462 375.906 693.93 366.37 693.93 354.606C693.93 342.843 703.462 333.307 715.22 333.307H825.626Z" fill="white"/>
<path d="M491.694 333.308C503.452 333.308 512.984 342.844 512.984 354.607C512.984 366.37 503.452 375.907 491.694 375.907H376.121C358.804 375.907 344.58 390.08 344.58 407.573V591.371C344.58 607.87 357.404 621.515 373.565 622.827H486.74L487.29 622.835C498.794 623.127 508.03 632.548 508.03 644.127C508.03 655.706 498.794 665.128 487.29 665.42L486.74 665.426H396.913L396.91 665.531H376.121C335.257 665.531 302 632.253 302 591.371V407.573C302 366.613 335.228 333.308 376.121 333.308H491.694Z" fill="white"/>
</g>
<defs>
<filter id="filter0_d_90_18" x="0" y="0" width="1200" height="1200" filterUnits="userSpaceOnUse" color-interpolation-filters="sRGB">
<feFlood flood-opacity="0" result="BackgroundImageFix"/>
<feColorMatrix in="SourceAlpha" type="matrix" values="0 0 0 0 0 0 0 0 0 0 0 0 0 0 0 0 0 0 127 0" result="hardAlpha"/>
<feOffset dy="100"/>
<feGaussianBlur stdDeviation="50"/>
<feComposite in2="hardAlpha" operator="out"/>
<feColorMatrix type="matrix" values="0 0 0 0 0 0 0 0 0 0 0 0 0 0 0 0 0 0 0.5 0"/>
<feBlend mode="multiply" in2="BackgroundImageFix" result="effect1_dropShadow_90_18"/>
<feBlend mode="normal" in="SourceGraphic" in2="effect1_dropShadow_90_18" result="shape"/>
</filter>
</defs>
</svg>
