<svg width="1000" height="1000" viewBox="0 0 1000 1000" fill="none" xmlns="http://www.w3.org/2000/svg">
<rect width="1000" height="1000" rx="500" fill="currentColor"/>
<path d="M228.447 277.755C242.871 277.755 254.586 289.47 254.586 303.92V565.463H777.67V434.695C777.67 420.245 789.385 408.53 803.835 408.53C818.285 408.53 830 420.245 830 434.695V722.404H777.697V643.937H254.586L254.559 722.424H202.255V303.947C202.255 289.497 213.97 277.782 228.421 277.782L228.447 277.755ZM646.896 436.217C704.673 436.217 751.504 483.077 751.53 540.852H411.521V436.217H646.896ZM333.058 436.215C361.932 436.215 385.36 459.644 385.36 488.545C385.36 517.419 361.932 540.847 333.058 540.848C304.157 540.848 280.754 517.419 280.754 488.545C280.754 459.644 304.157 436.215 333.058 436.215Z" fill="white"/>
</svg>
