<svg width="1200" height="1200" viewBox="0 0 1200 1200" fill="none" xmlns="http://www.w3.org/2000/svg">
<g filter="url(#filter0_d_78_89)">
<rect x="100" width="1000" height="1000" rx="500" fill="currentColor" shape-rendering="crispEdges"/>
<path d="M701.02 228.297C761.503 228.297 808.933 245.959 846.148 273.868C891.734 308.27 920.575 359.44 934.52 416.149C949.417 471.937 949.417 534.247 937.32 591.909L937.293 591.917C922.396 662.598 887.984 726.786 838.671 765.834L834.022 769.558C806.219 754.881 778.364 740.202 750.48 725.513C769.599 694.931 784.118 660.63 793.894 625.014L794.772 624.754L799.869 600.458L800.48 597.493C800.915 595.348 801.335 593.196 801.739 591.038C838.719 604.402 876.287 617.348 907.702 627.213L907.699 627.247C911.393 615.155 915.118 602.138 917.919 589.122C929.092 536.1 929.092 480.282 917.919 429.141C886.696 424.75 841.387 417.801 797.439 408.83C797.179 407.816 796.915 406.802 796.646 405.791C780.936 342.225 747.828 281.99 693.029 240.635L692.979 240.597L692.928 240.56L691.88 239.777C687.055 236.196 682.096 232.766 677 229.497C684.912 228.704 692.925 228.297 701.02 228.297ZM497.751 228.296C558.235 228.296 605.666 245.958 642.882 273.867C688.468 308.269 717.308 359.439 731.253 416.147C746.15 471.934 746.151 534.244 734.055 591.905L734.027 591.913C719.13 662.594 684.717 726.781 635.403 765.829L630.756 769.552C514.466 708.164 397.254 646.776 280.964 584.467L279.117 582.62C270.745 564.958 264.219 547.264 260.525 528.679C255.878 511.016 254 492.399 254 472.892C254 405.012 280.995 344.547 324.703 299.898C369.366 256.173 430.773 228.296 497.751 228.296ZM467.211 367.751C417.901 364.955 403.927 407.754 406.728 450.525C409.529 484.004 421.626 516.558 435.569 525.852C449.54 536.068 606.742 596.531 704.436 627.209L704.434 627.243C708.127 615.151 711.851 602.134 714.652 589.118C725.826 536.096 725.826 480.279 714.652 429.139C655.128 420.769 544.409 403.106 489.527 379.844C480.232 376.12 472.782 371.474 467.211 367.751Z" fill="white"/>
</g>
<defs>
<filter id="filter0_d_78_89" x="0" y="0" width="1200" height="1200" filterUnits="userSpaceOnUse" color-interpolation-filters="sRGB">
<feFlood flood-opacity="0" result="BackgroundImageFix"/>
<feColorMatrix in="SourceAlpha" type="matrix" values="0 0 0 0 0 0 0 0 0 0 0 0 0 0 0 0 0 0 127 0" result="hardAlpha"/>
<feOffset dy="100"/>
<feGaussianBlur stdDeviation="50"/>
<feComposite in2="hardAlpha" operator="out"/>
<feColorMatrix type="matrix" values="0 0 0 0 0 0 0 0 0 0 0 0 0 0 0 0 0 0 0.5 0"/>
<feBlend mode="multiply" in2="BackgroundImageFix" result="effect1_dropShadow_78_89"/>
<feBlend mode="normal" in="SourceGraphic" in2="effect1_dropShadow_78_89" result="shape"/>
</filter>
</defs>
</svg>
