<svg width="1000" height="1000" viewBox="0 0 1000 1000" fill="none" xmlns="http://www.w3.org/2000/svg">
<rect width="1000" height="1000" rx="500" fill="currentColor"/>
<path d="M730.633 378.765C726.618 356.009 714.5 335.485 696.511 320.958L686.274 270.577C679.801 238.211 649.843 216.056 617.027 219.318C584.185 222.58 559.195 250.229 559.22 283.222V337.618C549.711 349.887 543.363 364.288 540.754 379.568H457.255C454.646 364.288 448.298 349.886 438.789 337.618V283.222C438.814 250.229 413.825 222.58 380.982 219.318C348.165 216.056 318.208 238.211 311.736 270.577L301.499 320.958C283.509 335.485 271.391 356.009 267.377 378.765C267.377 378.765 218 620.028 218 650.537C218 697.154 242.864 740.209 283.232 763.518C323.6 786.828 373.327 786.827 413.696 763.518C454.064 740.21 478.928 697.155 478.928 650.537C478.928 621.232 470.699 540.138 470.699 540.138H527.301C527.301 540.138 519.072 621.229 519.072 650.537C519.072 697.154 543.936 740.209 584.304 763.518C624.672 786.828 674.4 786.827 714.768 763.518C755.137 740.21 780 697.155 780 650.537C780 620.028 730.623 378.765 730.623 378.765H730.633ZM351.072 278.406C353.506 266.287 364.746 258.007 377.04 259.262C389.335 260.491 398.668 270.853 398.643 283.223V306.506C387.126 301.739 374.783 299.28 362.313 299.28C357.069 299.331 351.826 299.807 346.657 300.685L351.072 278.406ZM348.463 740.864C298.61 740.789 258.213 700.394 258.143 650.544C257.415 626.382 266.698 602.973 283.81 585.889C300.896 568.778 324.305 559.494 348.464 560.222C398.342 560.222 438.784 600.667 438.784 650.543C438.784 700.418 398.338 740.864 348.463 740.864ZM530.516 500H467.491L460.867 419.712H537.14L530.516 500ZM599.364 283.223C599.339 270.853 608.673 260.491 620.967 259.262C633.261 258.007 644.501 266.287 646.935 278.406L651.351 300.686C646.182 299.808 640.939 299.331 635.695 299.281C623.225 299.281 610.881 301.74 599.365 306.507L599.364 283.223ZM649.544 740.864C599.666 740.864 559.224 700.419 559.224 650.544C559.224 600.668 599.669 560.223 649.544 560.223C673.705 559.495 697.114 568.778 714.198 585.89C731.309 602.976 740.593 626.385 739.865 650.544C739.79 700.398 699.394 740.794 649.544 740.864Z" fill="white"/>
</svg>
