<svg width="1001" height="1000" viewBox="0 0 1001 1000" fill="none" xmlns="http://www.w3.org/2000/svg">
<rect x="0.800049" width="1000" height="1000" rx="500" fill="currentColor"/>
<path d="M746.875 750C766.289 750 782 734.292 782 714.88C782 695.469 766.289 679.761 746.875 679.761H732.125L541.476 346.124L601.813 240.765C611.52 223.925 605.723 202.387 588.846 192.681C572.004 183.009 550.463 188.805 540.789 205.645L501 275.37L461.211 205.645C451.537 188.805 429.996 183.01 413.154 192.681C396.277 202.387 390.48 223.925 400.187 240.765L460.524 346.124L269.875 679.761H255.125C235.71 679.761 220 695.469 220 714.88C220 734.292 235.71 750 255.125 750H746.875ZM431.708 679.761L484.396 586.887C487.757 581.091 493.931 577.524 500.586 577.524C507.275 577.524 513.449 581.091 516.811 586.887L569.499 679.761H431.708Z" fill="white"/>
</svg>
