<svg width="1000" height="1000" viewBox="0 0 1000 1000" fill="none" xmlns="http://www.w3.org/2000/svg">
<rect width="1000" height="1000" rx="500" fill="currentColor"/>
<path d="M540.325 258.699C545.176 252.263 553.929 250.152 561.205 253.739C568.481 257.221 572.172 265.451 570.063 273.259L522.926 448.089H649.783C656.11 448.089 662.016 451.782 664.863 457.48C667.71 463.282 667.078 470.143 663.281 475.207L463.661 740.247C460.391 744.679 455.329 747 450.162 747C447.632 747 445.101 746.472 442.781 745.312C435.505 741.83 431.814 733.6 433.923 725.792L481.06 550.854H354.203C347.876 550.854 341.97 547.267 339.123 541.464C336.276 535.661 336.803 528.803 340.705 523.738L540.325 258.699Z" fill="white"/>
<path d="M725.626 333.307C766.596 333.307 799.852 366.585 799.852 407.573V418.02C830.286 424.703 853 451.92 853 484.279V514.771C853 547.177 830.248 574.271 799.852 580.928V591.372C799.852 632.281 766.568 665.533 725.626 665.533H610.053C598.295 665.533 588.763 655.996 588.763 644.233C588.763 632.47 598.295 622.934 610.053 622.934H725.626C743.103 622.934 757.272 608.704 757.272 591.372V539.897H785.311C799.175 539.897 810.42 528.649 810.42 514.771V484.279C810.42 470.338 799.113 459.048 785.311 459.048H757.272V407.573C757.272 390.108 743.076 375.906 725.626 375.906H615.22C603.462 375.906 593.93 366.37 593.93 354.606C593.93 342.843 603.462 333.307 615.22 333.307H725.626Z" fill="white"/>
<path d="M391.694 333.308C403.452 333.308 412.984 342.844 412.984 354.607C412.984 366.37 403.452 375.907 391.694 375.907H276.121C258.804 375.907 244.58 390.08 244.58 407.573V591.371C244.58 607.87 257.404 621.515 273.565 622.827H386.74L387.29 622.835C398.794 623.127 408.03 632.548 408.03 644.127C408.03 655.706 398.794 665.128 387.29 665.42L386.74 665.426H296.913L296.91 665.531H276.121C235.257 665.531 202 632.253 202 591.371V407.573C202 366.613 235.228 333.308 276.121 333.308H391.694Z" fill="white"/>
</svg>
