<svg width="1200" height="1200" viewBox="0 0 1200 1200" fill="none" xmlns="http://www.w3.org/2000/svg">
<g filter="url(#filter0_d_83_19)">
<rect x="100" width="1000" height="1000" rx="500" fill="currentColor" shape-rendering="crispEdges"/>
<path d="M600.5 200C486.139 200 394.242 291.861 394.242 406.258C394.242 520.619 600.5 800 600.5 800C600.5 800 806.758 520.619 806.758 406.258C806.758 291.861 714.861 200 600.5 200ZM600.5 499.982C548.013 499.982 506.74 458.745 506.74 406.222C506.74 353.735 547.977 312.462 600.5 312.462C652.987 312.462 694.26 353.699 694.26 406.222C694.26 458.744 652.988 499.982 600.5 499.982Z" fill="white"/>
</g>
<defs>
<filter id="filter0_d_83_19" x="0" y="0" width="1200" height="1200" filterUnits="userSpaceOnUse" color-interpolation-filters="sRGB">
<feFlood flood-opacity="0" result="BackgroundImageFix"/>
<feColorMatrix in="SourceAlpha" type="matrix" values="0 0 0 0 0 0 0 0 0 0 0 0 0 0 0 0 0 0 127 0" result="hardAlpha"/>
<feOffset dy="100"/>
<feGaussianBlur stdDeviation="50"/>
<feComposite in2="hardAlpha" operator="out"/>
<feColorMatrix type="matrix" values="0 0 0 0 0 0 0 0 0 0 0 0 0 0 0 0 0 0 0.5 0"/>
<feBlend mode="multiply" in2="BackgroundImageFix" result="effect1_dropShadow_83_19"/>
<feBlend mode="normal" in="SourceGraphic" in2="effect1_dropShadow_83_19" result="shape"/>
</filter>
</defs>
</svg>
