<svg width="1000" height="1000" viewBox="0 0 1000 1000" fill="none" xmlns="http://www.w3.org/2000/svg">
<rect width="1000" height="1000" rx="500" fill="currentColor" />
<path d="M718.718 750C735.988 750 749.963 736.025 749.963 718.755C749.963 701.485 735.988 687.51 718.718 687.51H705.597L536.006 390.68L589.678 296.944C598.313 281.962 593.156 262.8 578.144 254.164C563.162 245.56 544 250.717 535.395 265.699L500 327.731L464.606 265.699C456.001 250.717 436.839 245.56 421.857 254.164C406.844 262.8 401.688 281.962 410.322 296.944L463.995 390.68L294.403 687.51H281.283C264.013 687.51 250.037 701.485 250.037 718.755C250.037 736.025 264.013 750 281.283 750H718.718ZM438.362 687.51L485.23 604.881C488.22 599.725 493.712 596.551 499.632 596.551C505.582 596.551 511.074 599.725 514.065 604.881L560.933 687.51H438.362Z" fill="white"/>
</svg>
