<svg width="1000" height="1000" viewBox="0 0 1000 1000" fill="none" xmlns="http://www.w3.org/2000/svg">
<rect width="1000" height="1000" rx="500" fill="currentColor"/>
<path d="M705.079 392.14C701.508 371.894 690.726 353.634 674.721 340.71L665.614 295.887C659.855 267.091 633.202 247.381 604.007 250.283C574.787 253.185 552.555 277.784 552.577 307.137V355.532C544.117 366.447 538.469 379.26 536.148 392.854H461.861C459.539 379.26 453.892 366.447 445.432 355.532V307.137C445.454 277.784 423.222 253.185 394.002 250.283C364.805 247.381 338.153 267.091 332.395 295.887L323.287 340.71C307.282 353.634 296.501 371.894 292.93 392.14C292.93 392.14 249 606.786 249 633.93C249 675.404 271.121 713.709 307.036 734.447C342.95 755.185 387.192 755.184 423.107 734.447C459.022 713.71 481.142 675.405 481.142 633.93C481.142 607.858 473.821 535.71 473.821 535.71H524.179C524.179 535.71 516.858 607.855 516.858 633.93C516.858 675.404 538.979 713.709 574.893 734.447C610.808 755.185 655.049 755.184 690.964 734.447C726.88 713.71 749 675.405 749 633.93C749 606.786 705.07 392.14 705.07 392.14H705.079ZM367.392 302.852C369.557 292.07 379.557 284.704 390.495 285.82C401.433 286.914 409.737 296.133 409.714 307.138V327.853C399.468 323.611 388.486 321.424 377.393 321.424C372.727 321.468 368.062 321.893 363.464 322.674L367.392 302.852ZM365.07 714.292C320.717 714.225 284.777 678.286 284.714 633.935C284.067 612.439 292.326 591.613 307.55 576.414C322.751 561.19 343.577 552.931 365.071 553.578C409.447 553.578 445.427 589.562 445.427 633.935C445.427 678.308 409.443 714.292 365.07 714.292ZM527.039 500H470.967L465.074 428.57H532.933L527.039 500ZM588.292 307.138C588.27 296.133 596.574 286.914 607.512 285.82C618.449 284.704 628.45 292.07 630.615 302.852L634.544 322.674C629.945 321.893 625.28 321.469 620.615 321.424C609.521 321.424 598.538 323.612 588.293 327.853L588.292 307.138ZM632.936 714.292C588.56 714.292 552.58 678.309 552.58 633.935C552.58 589.562 588.563 553.579 632.936 553.579C654.432 552.932 675.258 561.191 690.457 576.414C705.681 591.616 713.94 612.442 713.293 633.936C713.226 678.29 677.287 714.229 632.936 714.292Z" fill="white"/>
</svg>
