<svg width="1000" height="1000" viewBox="0 0 1000 1000" fill="none" xmlns="http://www.w3.org/2000/svg">
<rect width="1000" height="1000" rx="500" fill="currentColor"/>
<path d="M256.364 283C263.8 283 269.753 288.954 269.753 296.39L269.724 413.88C269.724 430.988 255.608 445.104 238.5 445.104H231.819L245.21 677.086C246.691 698.637 229.583 717.227 208.031 717.227H207.276C185.725 717.226 168.617 698.637 170.099 677.086L184.214 445.104H177.534C160.426 445.104 146.311 430.988 146.311 413.88V296.39C146.311 288.954 152.265 283 159.7 283C167.136 283 173.091 288.954 173.091 296.39V396.771C173.091 400.488 176.053 403.451 179.771 403.451H187.962C191.68 403.451 194.643 400.488 194.643 396.771V296.39C194.643 288.954 200.597 283 208.032 283C215.468 283 221.422 288.954 221.422 296.39V396.771C221.422 400.488 224.385 403.451 228.103 403.451H236.294C240.012 403.451 242.975 400.488 242.975 396.771V296.39C242.975 288.954 248.929 283 256.364 283ZM834.859 284.479C843.021 280.762 852.693 286.718 852.693 295.635V680.047C852.693 700.872 836.341 717.224 815.516 717.225C792.453 717.225 774.62 696.399 778.338 674.092L801.399 526.139H788.766C770.932 526.139 756.787 511.268 757.542 493.435L761.26 393.054C763.467 345.445 792.483 303.824 834.859 284.479ZM502.459 283.096C622.118 283.096 719.489 380.444 719.489 500.111C719.489 619.779 622.125 717.127 502.459 717.127C382.83 717.127 285.459 619.786 285.459 500.111C285.459 380.474 382.793 283.096 502.459 283.096Z" fill="white"/>
<path d="M501.989 350C584.689 350 652 417.296 652 500C652 582.704 584.694 650 501.989 650C419.312 650 352 582.71 352 500C352 417.315 419.287 350 501.989 350Z" stroke="currentColor" stroke-width="20"/>
</svg>
