<svg width="1000" height="1000" viewBox="0 0 1000 1000" fill="none" xmlns="http://www.w3.org/2000/svg">
<rect width="1000" height="1000" rx="500" fill="currentColor"/>
<path d="M758.121 478H241.879C230.918 478 222.024 486.894 222.024 497.855C222.024 508.817 230.918 517.711 241.879 517.711H264.579L278.954 719.084C280.427 739.87 297.723 755.977 318.561 755.977H681.439C702.277 755.977 719.573 739.87 721.047 719.084L735.421 517.711H758.121C769.082 517.711 777.976 508.817 777.976 497.855C777.976 486.894 769.082 478 758.121 478ZM400.723 666.626C400.723 672.107 396.276 676.554 390.795 676.554H370.94C365.459 676.554 361.012 672.107 361.012 666.626V567.349C361.012 561.868 365.459 557.422 370.94 557.422H390.795C396.276 557.422 400.723 561.868 400.723 567.349V666.626ZM519.856 666.626C519.856 672.107 515.409 676.554 509.928 676.554H490.072C484.592 676.554 480.145 672.107 480.145 666.626V567.349C480.145 561.868 484.592 557.422 490.072 557.422H509.928C515.409 557.422 519.856 561.868 519.856 567.349V666.626ZM638.988 666.626C638.988 672.107 634.541 676.554 629.06 676.554H609.205C603.724 676.554 599.277 672.107 599.277 666.626V567.349C599.277 561.868 603.724 557.422 609.205 557.422H629.06C634.541 557.422 638.988 561.868 638.988 567.349V666.626Z" fill="white"/>
<path d="M696.225 203.644C610.985 172.62 545.886 350.905 524.091 438.289H701.242C729.473 364.526 770.423 230.66 696.225 203.644ZM680.687 387.386C676.447 394.289 667.32 396.615 660.184 392.246C644.543 382.603 625.204 375.597 601.058 370.865C592.991 369.288 587.743 361.455 589.32 353.363C590.897 345.296 598.705 340.048 606.823 341.626C634.538 347.081 657.108 355.328 675.827 366.859C682.834 371.202 685.004 380.354 680.687 387.386ZM685.521 310.552C672.078 300.418 654.782 294.186 634.125 292.067C625.955 291.213 619.983 283.897 620.836 275.727C621.689 267.531 629.083 261.688 637.176 262.438C663.288 265.153 685.599 273.322 703.413 286.767C709.98 291.73 711.299 301.064 706.335 307.63C701.423 314.171 692.062 315.49 685.521 310.552Z" fill="white"/>
<path d="M285.753 438.289L281.694 391.856C280.583 379.085 290.019 367.813 302.817 366.675H302.92C314.709 365.641 323.836 355.894 324.12 344.079L326.446 244.597C316.493 244.338 308.013 236.97 307.108 226.784C306.151 215.848 314.217 206.23 325.154 205.274L384.487 200.077C395.423 199.12 405.041 207.187 405.997 218.123C406.876 228.284 399.818 237.022 390.072 239.012L409.643 336.582C411.969 348.19 422.647 356.178 434.436 355.17H434.54C447.311 354.059 458.583 363.495 459.721 376.293L465.124 438.289L285.753 438.289Z" fill="white"/>
</svg>
