<svg width="1200" height="1200" viewBox="0 0 1200 1200" fill="none" xmlns="http://www.w3.org/2000/svg">
<g filter="url(#filter0_d_101_2)">
<rect x="100" width="1000" height="1000" rx="500" fill="currentColor" shape-rendering="crispEdges"/>
<path d="M562.744 224.727C584.323 206.412 616.014 206.412 637.591 224.727L877.616 424.79C884.749 430.316 888.902 438.864 888.812 447.886C888.879 461.058 888.88 473.982 888.88 486.749L888.874 486.759C889.439 490.773 888.084 494.833 885.218 497.698C882.329 500.585 878.288 501.939 874.248 501.375H821.611C813.237 501.375 811.905 502.819 811.905 511.3V688.45C812.695 698.961 808.903 709.291 801.499 716.802C794.119 724.313 783.826 728.26 773.308 727.651H675.076C661.849 727.651 658.26 723.839 658.26 710.329V619.565C658.17 590.785 636.885 566.47 608.355 562.546C579.824 558.621 552.761 576.281 544.886 603.979C543.08 610.385 542.177 617.017 542.177 623.671V710.686C542.177 723.791 538.182 728.01 524.842 728.01H428.171C403.094 728.01 387.722 712.987 388.061 687.996V511.474C388.061 503.445 386.549 501.957 378.581 501.957H329.127C315.133 501.957 311.047 498.077 311.047 484.635V449.561C310.505 440.043 314.659 430.862 322.153 424.975C395.647 363.85 469.096 302.702 542.521 241.531L562.744 224.727ZM734.124 211.245C755.446 210.907 776.789 210.907 798.11 211.245C807.874 211.065 816.027 218.727 816.452 228.553C816.676 262.833 816.341 296.754 816.341 332.07L771.615 294.679C754.415 280.323 737.214 265.832 720.014 251.588C717.08 249.627 715.468 246.178 715.826 242.639C716.162 238.718 715.826 234.729 715.826 230.762C715.49 225.669 717.282 220.688 720.753 216.992C724.225 213.296 729.063 211.2 734.124 211.245Z" fill="white"/>
</g>
<defs>
<filter id="filter0_d_101_2" x="0" y="0" width="1200" height="1200" filterUnits="userSpaceOnUse" color-interpolation-filters="sRGB">
<feFlood flood-opacity="0" result="BackgroundImageFix"/>
<feColorMatrix in="SourceAlpha" type="matrix" values="0 0 0 0 0 0 0 0 0 0 0 0 0 0 0 0 0 0 127 0" result="hardAlpha"/>
<feOffset dy="100"/>
<feGaussianBlur stdDeviation="50"/>
<feComposite in2="hardAlpha" operator="out"/>
<feColorMatrix type="matrix" values="0 0 0 0 0 0 0 0 0 0 0 0 0 0 0 0 0 0 0.5 0"/>
<feBlend mode="multiply" in2="BackgroundImageFix" result="effect1_dropShadow_101_2"/>
<feBlend mode="normal" in="SourceGraphic" in2="effect1_dropShadow_101_2" result="shape"/>
</filter>
</defs>
</svg>
