<svg width="1200" height="1200" viewBox="0 0 1200 1200" fill="none" xmlns="http://www.w3.org/2000/svg">
<g filter="url(#filter0_d_2027_14)">
<rect x="100" width="1000" height="1000" rx="500" fill="black" shape-rendering="crispEdges"/>
<path d="M402 365.654C402 340.555 410.052 315.192 426.156 289.564C442.26 263.672 465.756 242.272 496.644 225.363C527.532 208.454 563.568 200 604.752 200C643.032 200 676.824 207.133 706.128 221.4C735.432 235.403 758.004 254.557 773.844 278.864C789.948 303.17 798 329.59 798 358.124C798 380.581 793.38 400.264 784.14 417.173C775.164 434.082 764.34 448.745 751.668 461.162C739.26 473.316 716.82 493.923 684.348 522.985C675.372 531.176 668.112 538.441 662.568 544.782C657.288 550.859 653.328 556.539 650.688 561.823C648.048 566.843 645.936 571.995 644.352 577.279C643.032 582.299 640.92 591.281 638.016 604.227C633 631.704 617.292 645.443 590.892 645.443C577.164 645.443 565.548 640.951 556.044 631.968C546.804 622.985 542.184 609.643 542.184 591.942C542.184 569.749 545.616 550.594 552.48 534.478C559.344 518.098 568.452 503.831 579.804 491.678C591.156 479.26 606.468 464.597 625.74 447.688C642.636 432.893 654.78 421.797 662.172 414.399C669.828 406.737 676.164 398.283 681.18 389.036C686.46 379.789 689.1 369.749 689.1 358.917C689.1 337.781 681.18 319.947 665.34 305.416C649.764 290.885 629.568 283.62 604.752 283.62C575.712 283.62 554.328 291.017 540.6 305.812C526.872 320.343 515.256 341.876 505.752 370.41C496.776 400.264 479.748 415.192 454.668 415.192C439.884 415.192 427.344 410.04 417.048 399.736C407.016 389.168 402 377.807 402 365.654ZM595.248 800C579.144 800 565.02 794.848 552.876 784.544C540.996 773.976 535.056 759.313 535.056 740.555C535.056 723.91 540.864 709.908 552.48 698.547C564.096 687.186 578.352 681.506 595.248 681.506C611.88 681.506 625.872 687.186 637.224 698.547C648.576 709.908 654.252 723.91 654.252 740.555C654.252 759.049 648.312 773.58 636.432 784.148C624.552 794.716 610.824 800 595.248 800Z" fill="white"/>
</g>
<defs>
<filter id="filter0_d_2027_14" x="0" y="0" width="1200" height="1200" filterUnits="userSpaceOnUse" color-interpolation-filters="sRGB">
<feFlood flood-opacity="0" result="BackgroundImageFix"/>
<feColorMatrix in="SourceAlpha" type="matrix" values="0 0 0 0 0 0 0 0 0 0 0 0 0 0 0 0 0 0 127 0" result="hardAlpha"/>
<feOffset dy="100"/>
<feGaussianBlur stdDeviation="50"/>
<feComposite in2="hardAlpha" operator="out"/>
<feColorMatrix type="matrix" values="0 0 0 0 0 0 0 0 0 0 0 0 0 0 0 0 0 0 0.5 0"/>
<feBlend mode="multiply" in2="BackgroundImageFix" result="effect1_dropShadow_2027_14"/>
<feBlend mode="normal" in="SourceGraphic" in2="effect1_dropShadow_2027_14" result="shape"/>
</filter>
</defs>
</svg>
