<svg width="1000" height="1000" viewBox="0 0 1000 1000" fill="none" xmlns="http://www.w3.org/2000/svg">
<rect width="1000" height="1000" rx="500" fill="currentColor"/>
<path d="M227.102 289.18C240.784 289.18 251.896 300.292 251.896 314V562.104H748.104V438.056C748.104 424.348 759.216 413.234 772.924 413.234C786.632 413.234 797.744 424.348 797.744 438.056V710.981H748.129V636.546H251.896L251.871 711H202.256V314.025C202.256 300.318 213.368 289.205 227.076 289.205L227.102 289.18ZM624.049 439.499C678.857 439.499 723.281 483.952 723.307 538.758H400.768V439.499H624.049ZM326.336 439.497C353.726 439.497 375.951 461.722 375.951 489.138C375.951 516.528 353.727 538.754 326.336 538.754C298.92 538.754 276.721 516.528 276.721 489.138C276.721 461.722 298.92 439.497 326.336 439.497Z" fill="white"/>
</svg>
