<svg width="1000" height="1000" viewBox="0 0 1000 1000" fill="none" xmlns="http://www.w3.org/2000/svg">
<rect width="1000" height="1000" rx="500" fill="currentColor"/>
<path d="M833.374 257.295C816.583 245.512 798.336 237.739 779.098 232.649C740.623 222.468 698.175 222.905 655.74 223.375C613.306 223.844 570.87 224.315 532.382 214.101C513.93 209.217 496.236 201.622 480.43 190.913C467.793 182.329 456.272 171.578 446.308 159.545L449.951 149.704C455.703 134.166 447.77 116.907 432.232 111.155C416.694 105.4 399.435 113.336 393.683 128.874L162.306 753.873C156.554 769.411 164.487 786.67 180.025 792.422C183.46 793.693 186.976 794.296 190.436 794.296C202.628 794.296 214.093 786.807 218.574 774.703L219.39 772.498L219.924 772.695L322.862 494.542C405.485 594.85 546.193 538.345 655.257 567.261C674.495 572.351 692.753 580.156 709.533 591.907C726.324 603.691 741.616 619.465 754.944 640.558C768.697 603.358 782.461 566.19 796.224 529.021C809.977 491.821 823.741 454.653 837.504 417.484C851.257 380.284 865.021 343.116 878.785 305.947C865.444 284.821 850.153 269.046 833.374 257.295Z" fill="white"/>
</svg>
