<svg width="1200" height="1200" viewBox="0 0 1200 1200" fill="none" xmlns="http://www.w3.org/2000/svg">
<g filter="url(#filter0_d_77_35)">
<rect x="100" width="1000" height="1000" rx="500" fill="currentColor" shape-rendering="crispEdges"/>
<path d="M722.906 200C737.505 200 749.35 211.845 749.35 226.443L749.418 604.848H798.965C837.838 604.848 869.48 573.206 869.48 534.332V524.209C838.354 515.877 813.082 485.955 802.925 446.635C798.036 427.698 809.019 408.003 824.065 408.003H833.671V377.222C833.671 367.478 841.556 359.593 851.3 359.593C861.044 359.593 868.929 367.477 868.929 377.222V408.003H905.22V377.222C905.22 367.478 913.104 359.593 922.849 359.593C932.593 359.593 940.478 367.477 940.478 377.222V408.003H950.084C965.13 408.003 976.114 427.69 971.225 446.661C961.067 486.017 935.794 515.904 904.668 524.236V534.358C904.668 592.685 857.221 640.132 798.895 640.132H749.348V747.113H764.256C778.854 747.113 790.699 758.958 790.699 773.557C790.699 788.155 778.854 800 764.256 800H359.443C344.845 800 333 788.155 333 773.557C333 758.958 344.845 747.113 359.443 747.113H374.938V226.443C374.938 211.845 386.782 200 401.381 200H722.906ZM619.518 267.546C613.066 264.357 605.305 266.233 601.004 271.954L424 507.545C420.54 512.047 420.073 518.144 422.598 523.302C425.122 528.46 430.359 531.648 435.969 531.648H548.453L506.657 687.148C504.787 694.088 508.059 701.404 514.511 704.499C516.568 705.531 518.813 706 521.057 706C525.638 706 530.127 703.937 533.025 699.998L710.028 464.406C713.394 459.905 713.956 453.807 711.432 448.648C708.907 443.584 703.67 440.301 698.06 440.301H585.575L627.372 284.896C629.242 277.956 625.969 270.641 619.518 267.546Z" fill="white"/>
</g>
<defs>
<filter id="filter0_d_77_35" x="0" y="0" width="1200" height="1200" filterUnits="userSpaceOnUse" color-interpolation-filters="sRGB">
<feFlood flood-opacity="0" result="BackgroundImageFix"/>
<feColorMatrix in="SourceAlpha" type="matrix" values="0 0 0 0 0 0 0 0 0 0 0 0 0 0 0 0 0 0 127 0" result="hardAlpha"/>
<feOffset dy="100"/>
<feGaussianBlur stdDeviation="50"/>
<feComposite in2="hardAlpha" operator="out"/>
<feColorMatrix type="matrix" values="0 0 0 0 0 0 0 0 0 0 0 0 0 0 0 0 0 0 0.5 0"/>
<feBlend mode="multiply" in2="BackgroundImageFix" result="effect1_dropShadow_77_35"/>
<feBlend mode="normal" in="SourceGraphic" in2="effect1_dropShadow_77_35" result="shape"/>
</filter>
</defs>
</svg>
