<svg width="1200" height="1200" viewBox="0 0 1200 1200" fill="none" xmlns="http://www.w3.org/2000/svg">
<g filter="url(#filter0_d_106_80)">
<rect x="100" width="1000" height="1000" rx="500" fill="currentColor"/>
<path d="M933.374 257.295C916.583 245.512 898.336 237.739 879.098 232.649C840.623 222.468 798.175 222.905 755.74 223.375C713.306 223.844 670.87 224.315 632.382 214.101C613.93 209.217 596.236 201.622 580.43 190.913C567.793 182.329 556.272 171.578 546.308 159.545L549.951 149.704C555.703 134.166 547.77 116.907 532.232 111.155C516.694 105.4 499.435 113.336 493.683 128.874L262.306 753.873C256.554 769.411 264.487 786.67 280.025 792.422C283.46 793.693 286.976 794.296 290.436 794.296C302.628 794.296 314.093 786.807 318.574 774.703L319.39 772.498L319.924 772.695L422.862 494.542C505.485 594.85 646.193 538.345 755.257 567.261C774.495 572.351 792.753 580.156 809.533 591.907C826.324 603.691 841.616 619.465 854.944 640.558C868.697 603.358 882.461 566.19 896.224 529.021C909.977 491.821 923.741 454.653 937.504 417.484C951.257 380.284 965.021 343.116 978.785 305.947C965.444 284.821 950.153 269.046 933.374 257.295ZM625.556 232.578C614.096 263.586 602.593 294.573 591.133 325.582C559.042 317.06 529.824 300.944 505.509 271.48C516.939 240.589 528.358 209.665 539.822 178.761C564.11 208.245 593.5 224.079 625.556 232.578ZM882.177 509.807C857.855 480.316 828.609 464.211 796.57 455.71C810.318 418.525 824.076 381.371 837.835 344.216C799.348 334.002 756.9 334.438 714.477 334.942C700.724 372.142 686.96 409.31 673.197 446.479C715.615 446.01 758.035 445.54 796.512 455.742C785.055 486.742 773.554 517.721 762.098 548.721C723.613 538.506 681.22 538.886 638.785 539.356C650.226 508.387 661.699 477.405 673.172 446.423C630.738 446.892 588.302 447.363 549.814 437.149C538.373 468.119 526.922 499.055 515.436 530.003C483.378 521.504 454.023 505.658 429.702 476.186C441.185 445.126 452.679 414.099 464.162 383.039C488.484 412.51 517.756 428.65 549.813 437.148L549.814 437.149C563.576 399.989 577.338 362.826 591.154 325.606C629.622 335.78 672.06 335.344 714.486 334.873C725.927 303.904 737.4 272.922 748.873 241.94C791.272 241.482 833.698 241.091 872.187 251.305C860.701 282.254 849.261 313.223 837.809 344.159C869.877 352.691 899.138 368.796 923.459 398.268C909.707 435.468 895.942 472.636 882.179 509.805L882.177 509.807Z" fill="white"/>
</g>
<defs>
<filter id="filter0_d_106_80" x="0" y="0" width="1200" height="1200" filterUnits="userSpaceOnUse" color-interpolation-filters="sRGB">
<feFlood flood-opacity="0" result="BackgroundImageFix"/>
<feColorMatrix in="SourceAlpha" type="matrix" values="0 0 0 0 0 0 0 0 0 0 0 0 0 0 0 0 0 0 127 0" result="hardAlpha"/>
<feOffset dy="100"/>
<feGaussianBlur stdDeviation="50"/>
<feComposite in2="hardAlpha" operator="out"/>
<feColorMatrix type="matrix" values="0 0 0 0 0 0 0 0 0 0 0 0 0 0 0 0 0 0 0.5 0"/>
<feBlend mode="multiply" in2="BackgroundImageFix" result="effect1_dropShadow_106_80"/>
<feBlend mode="normal" in="SourceGraphic" in2="effect1_dropShadow_106_80" result="shape"/>
</filter>
</defs>
</svg>
