<svg width="1200" height="1200" viewBox="0 0 1200 1200" fill="none" xmlns="http://www.w3.org/2000/svg">
<g filter="url(#filter0_d_106_77)">
<rect x="100" width="1000" height="1000" rx="500" fill="currentColor"/>
<path d="M933.374 257.295C916.583 245.512 898.336 237.739 879.098 232.649C840.623 222.468 798.175 222.905 755.74 223.375C713.306 223.844 670.87 224.315 632.382 214.101C613.93 209.217 596.236 201.622 580.43 190.913C567.793 182.329 556.272 171.578 546.308 159.545L549.951 149.704C555.703 134.166 547.77 116.907 532.232 111.155C516.694 105.4 499.435 113.336 493.683 128.874L262.306 753.873C256.554 769.411 264.487 786.67 280.025 792.422C283.46 793.693 286.976 794.296 290.436 794.296C302.628 794.296 314.093 786.807 318.574 774.703L319.39 772.498L319.924 772.695L422.862 494.542C505.485 594.85 646.193 538.345 755.257 567.261C774.495 572.351 792.753 580.156 809.533 591.907C826.324 603.691 841.616 619.465 854.944 640.558C868.697 603.358 882.461 566.19 896.224 529.021C909.977 491.821 923.741 454.653 937.504 417.484C951.257 380.284 965.021 343.116 978.785 305.947C965.444 284.821 950.153 269.046 933.374 257.295Z" fill="white"/>
</g>
<defs>
<filter id="filter0_d_106_77" x="0" y="0" width="1200" height="1200" filterUnits="userSpaceOnUse" color-interpolation-filters="sRGB">
<feFlood flood-opacity="0" result="BackgroundImageFix"/>
<feColorMatrix in="SourceAlpha" type="matrix" values="0 0 0 0 0 0 0 0 0 0 0 0 0 0 0 0 0 0 127 0" result="hardAlpha"/>
<feOffset dy="100"/>
<feGaussianBlur stdDeviation="50"/>
<feComposite in2="hardAlpha" operator="out"/>
<feColorMatrix type="matrix" values="0 0 0 0 0 0 0 0 0 0 0 0 0 0 0 0 0 0 0.5 0"/>
<feBlend mode="multiply" in2="BackgroundImageFix" result="effect1_dropShadow_106_77"/>
<feBlend mode="normal" in="SourceGraphic" in2="effect1_dropShadow_106_77" result="shape"/>
</filter>
</defs>
</svg>
