<svg width="1200" height="1200" viewBox="0 0 1200 1200" fill="none" xmlns="http://www.w3.org/2000/svg">
<g filter="url(#filter0_d_135_164)">
<rect x="100" width="1000" height="1000" rx="500" fill="currentColor" shape-rendering="crispEdges"/>
<path d="M710.702 342H635.261V370.422C635.261 527.442 746.904 658.384 895.142 688.203C881.23 709.973 864.977 730.102 846.736 748.233C759.94 722.386 685.678 667.446 635.261 594.721V848.244C623.665 849.404 611.902 850 600 850C588.277 850 576.688 849.422 565.261 848.296V594.72C514.766 667.558 440.352 722.556 353.384 748.354C335.12 730.217 318.846 710.079 304.917 688.297C453.384 658.658 565.26 527.605 565.26 370.422C565.26 370.396 565.261 370.371 565.261 370.346V342H489L599.852 150L710.702 342Z" fill="white"/>
</g>
<defs>
<filter id="filter0_d_135_164" x="0" y="0" width="1200" height="1200" filterUnits="userSpaceOnUse" color-interpolation-filters="sRGB">
<feFlood flood-opacity="0" result="BackgroundImageFix"/>
<feColorMatrix in="SourceAlpha" type="matrix" values="0 0 0 0 0 0 0 0 0 0 0 0 0 0 0 0 0 0 127 0" result="hardAlpha"/>
<feOffset dy="100"/>
<feGaussianBlur stdDeviation="50"/>
<feComposite in2="hardAlpha" operator="out"/>
<feColorMatrix type="matrix" values="0 0 0 0 0 0 0 0 0 0 0 0 0 0 0 0 0 0 0.5 0"/>
<feBlend mode="multiply" in2="BackgroundImageFix" result="effect1_dropShadow_135_164"/>
<feBlend mode="normal" in="SourceGraphic" in2="effect1_dropShadow_135_164" result="shape"/>
</filter>
</defs>
</svg>
