<svg width="1200" height="1200" viewBox="0 0 1200 1200" fill="none" xmlns="http://www.w3.org/2000/svg">
<g filter="url(#filter0_d_129_143)">
<rect x="100" width="1000" height="1000" rx="500" fill="currentColor" shape-rendering="crispEdges"/>
<path d="M574 315.435L600 277L626 315.435V497H574V315.435Z" fill="white"/>
<path d="M798.244 361.777L843.855 360.689L820.108 399.647L604.964 523.86L583.099 485.99L798.244 361.777Z" fill="white"/>
<ellipse cx="600" cy="499.5" rx="36" ry="36.5" fill="white"/>
<path d="M627.045 109.442V209.628H577.045V109.442H627.045Z" fill="white"/>
<path d="M955.083 324.898L868.319 374.99L843.319 331.689L930.083 281.596L955.083 324.898Z" fill="white"/>
<path d="M987.529 523.806H887.343V473.806H987.529V523.806Z" fill="white"/>
<path d="M922.192 713.975L835.429 663.882L860.429 620.581L947.192 670.674L922.192 713.975Z" fill="white"/>
<path d="M770.526 845.998L720.433 759.235L763.734 734.235L813.827 820.998L770.526 845.998Z" fill="white"/>
<path d="M573.166 884.5V784.315H623.166V884.5H573.166Z" fill="white"/>
<path d="M382.997 819.164L433.09 732.4L476.391 757.4L426.298 844.164L382.997 819.164Z" fill="white"/>
<path d="M250.973 667.496L337.736 617.404L362.736 660.705L275.973 710.797L250.973 667.496Z" fill="white"/>
<path d="M212.471 470.137H312.657V520.137H212.471V470.137Z" fill="white"/>
<path d="M277.808 279.967L364.571 330.06L339.571 373.361L252.808 323.269L277.808 279.967Z" fill="white"/>
<path d="M429.474 147.944L479.567 234.707L436.266 259.707L386.173 172.944L429.474 147.944Z" fill="white"/>
<path d="M601 109C747.572 109 876.012 187.258 944 306.73L855.512 357C805.381 268.906 710.488 210.704 601 210.704V109Z" fill="white" fill-opacity="0.5"/>
</g>
<defs>
<filter id="filter0_d_129_143" x="0" y="0" width="1200" height="1200" filterUnits="userSpaceOnUse" color-interpolation-filters="sRGB">
<feFlood flood-opacity="0" result="BackgroundImageFix"/>
<feColorMatrix in="SourceAlpha" type="matrix" values="0 0 0 0 0 0 0 0 0 0 0 0 0 0 0 0 0 0 127 0" result="hardAlpha"/>
<feOffset dy="100"/>
<feGaussianBlur stdDeviation="50"/>
<feComposite in2="hardAlpha" operator="out"/>
<feColorMatrix type="matrix" values="0 0 0 0 0 0 0 0 0 0 0 0 0 0 0 0 0 0 0.5 0"/>
<feBlend mode="multiply" in2="BackgroundImageFix" result="effect1_dropShadow_129_143"/>
<feBlend mode="normal" in="SourceGraphic" in2="effect1_dropShadow_129_143" result="shape"/>
</filter>
</defs>
</svg>
