<svg width="1200" height="1200" viewBox="0 0 1200 1200" fill="none" xmlns="http://www.w3.org/2000/svg">
<g filter="url(#filter0_d_89_61)">
<rect x="100" width="1000" height="1000" rx="500" fill="currentColor" shape-rendering="crispEdges"/>
<path d="M858.121 478H341.879C330.918 478 322.024 486.894 322.024 497.855C322.024 508.817 330.918 517.711 341.879 517.711H364.579L378.953 719.084C380.427 739.87 397.723 755.977 418.561 755.977H781.439C802.277 755.977 819.573 739.87 821.047 719.084L835.421 517.711H858.121C869.082 517.711 877.976 508.817 877.976 497.855C877.976 486.894 869.082 478 858.121 478ZM500.723 666.626C500.723 672.107 496.276 676.554 490.795 676.554H470.94C465.459 676.554 461.012 672.107 461.012 666.626V567.349C461.012 561.868 465.459 557.421 470.94 557.421H490.795C496.276 557.421 500.723 561.868 500.723 567.349V666.626ZM619.855 666.626C619.855 672.107 615.409 676.554 609.928 676.554H590.072C584.591 676.554 580.145 672.107 580.145 666.626V567.349C580.145 561.868 584.591 557.421 590.072 557.421H609.928C615.409 557.421 619.855 561.868 619.855 567.349V666.626ZM738.988 666.626C738.988 672.107 734.541 676.554 729.06 676.554H709.205C703.724 676.554 699.277 672.107 699.277 666.626V567.349C699.277 561.868 703.724 557.421 709.205 557.421H729.06C734.541 557.421 738.988 561.868 738.988 567.349V666.626Z" fill="white"/>
<path d="M796.225 203.644C710.985 172.619 645.886 350.905 624.091 438.289H801.242C829.473 364.526 870.423 230.66 796.225 203.644ZM780.687 387.386C776.447 394.289 767.32 396.615 760.184 392.246C744.543 382.603 725.204 375.597 701.058 370.865C692.991 369.288 687.743 361.454 689.32 353.363C690.897 345.296 698.705 340.048 706.823 341.626C734.538 347.081 757.108 355.328 775.827 366.858C782.834 371.202 785.004 380.354 780.687 387.386ZM785.521 310.552C772.078 300.418 754.782 294.186 734.125 292.066C725.955 291.213 719.983 283.897 720.836 275.727C721.689 267.531 729.083 261.688 737.176 262.438C763.288 265.153 785.599 273.322 803.413 286.766C809.98 291.73 811.299 301.064 806.335 307.63C801.423 314.171 792.062 315.49 785.521 310.552Z" fill="white"/>
<path d="M385.753 438.289L381.694 391.856C380.582 379.085 390.019 367.813 402.816 366.675H402.92C414.709 365.641 423.836 355.894 424.119 344.079L426.446 244.597C416.493 244.338 408.012 236.97 407.108 226.784C406.151 215.848 414.217 206.23 425.154 205.274L484.487 200.077C495.423 199.12 505.041 207.187 505.997 218.123C506.876 228.284 499.818 237.022 490.072 239.012L509.643 336.582C511.969 348.19 522.646 356.178 534.436 355.17H534.539C547.311 354.059 558.583 363.495 559.721 376.293L565.124 438.289L385.753 438.289Z" fill="white"/>
</g>
<defs>
<filter id="filter0_d_89_61" x="0" y="0" width="1200" height="1200" filterUnits="userSpaceOnUse" color-interpolation-filters="sRGB">
<feFlood flood-opacity="0" result="BackgroundImageFix"/>
<feColorMatrix in="SourceAlpha" type="matrix" values="0 0 0 0 0 0 0 0 0 0 0 0 0 0 0 0 0 0 127 0" result="hardAlpha"/>
<feOffset dy="100"/>
<feGaussianBlur stdDeviation="50"/>
<feComposite in2="hardAlpha" operator="out"/>
<feColorMatrix type="matrix" values="0 0 0 0 0 0 0 0 0 0 0 0 0 0 0 0 0 0 0.5 0"/>
<feBlend mode="multiply" in2="BackgroundImageFix" result="effect1_dropShadow_89_61"/>
<feBlend mode="normal" in="SourceGraphic" in2="effect1_dropShadow_89_61" result="shape"/>
</filter>
</defs>
</svg>
