<svg width="1000" height="1000" viewBox="0 0 1000 1000" fill="none" xmlns="http://www.w3.org/2000/svg">
<rect width="1000" height="1000" rx="500" fill="currentColor"/>
<path d="M697.904 667.541C740.287 667.474 774.616 633.164 774.684 590.807V422.227C774.729 401.865 766.633 382.329 752.185 367.979L651.918 267.218L613.047 306.066L662.967 356.201L656.257 388.254L656.279 388.232C652.097 407.857 659.947 428.063 676.252 439.731L719.708 470.801V590.966C719.708 602.991 709.957 612.737 697.924 612.737C685.891 612.737 676.14 602.991 676.14 590.966V545.77C676.073 503.413 641.742 469.105 599.36 469.036H570.732V365.454C570.709 339.749 561.853 314.849 545.66 294.889C529.445 274.928 506.878 261.137 481.694 255.817C443.516 248.061 404.129 248.061 365.928 255.817C340.812 261.182 318.29 274.996 302.117 294.956C285.969 314.894 277.134 339.794 277.134 365.452V682.653H258.682C240.074 682.653 225 697.719 225 716.315C225 734.912 240.074 750 258.682 750H588.934C607.542 750 622.639 734.912 622.639 716.315C622.639 697.719 607.542 682.653 588.934 682.653H570.572V523.978H599.2C611.188 524.001 620.917 533.724 620.939 545.705V590.744C620.962 611.129 629.081 630.665 643.506 645.082C657.932 659.477 677.502 667.546 697.899 667.546L697.904 667.541ZM462.417 499.991H385.345C371.97 499.991 361.123 489.151 361.123 475.784C361.123 462.417 371.97 451.576 385.345 451.576H462.417C475.791 451.576 486.639 462.417 486.639 475.784C486.639 489.15 475.792 499.991 462.417 499.991ZM462.417 406.56H385.345C371.97 406.56 361.123 395.72 361.123 382.353C361.123 368.986 371.97 358.145 385.345 358.145H462.417C475.791 358.145 486.639 368.986 486.639 382.353C486.639 395.719 475.792 406.56 462.417 406.56Z" fill="white"/>
</svg>
