<svg width="500" height="500" viewBox="0 0 500 500" fill="none" xmlns="http://www.w3.org/2000/svg">
<path d="M210.093 0.000114992C223.03 0.000276868 233.545 10.4953 233.545 23.4523C233.545 36.4093 223.03 46.9043 210.093 46.9044H115.679C77.7059 46.9444 46.9444 77.7051 46.9053 115.678V384.32C46.9453 422.293 77.7059 453.055 115.679 453.094H384.321C422.294 453.054 453.056 422.293 453.095 384.32V289.927C453.095 276.97 463.59 266.475 476.547 266.475C489.504 266.475 500 276.971 500 289.928V384.321C499.961 414.986 487.765 444.399 466.072 466.072C444.399 487.765 414.985 499.961 384.321 500H115.679C85.0145 499.961 55.6003 487.765 33.9268 466.072C12.234 444.399 0.0390867 414.985 0 384.321V115.679C0.0390244 85.0146 12.2337 55.6004 33.9268 33.9269C55.6003 12.2338 85.015 0.039202 115.679 0.000114992H210.093ZM476.462 0.000114992C482.698 -0.0193823 488.72 2.44116 493.138 6.87414C497.556 11.2875 500.038 17.2832 499.999 23.5323C499.979 29.7813 497.458 35.7567 493.001 40.131L306.382 226.47H395.86C408.802 226.47 419.319 236.957 419.319 249.904C419.319 262.832 408.802 273.339 395.86 273.339L249.588 273.319C248.884 273.319 248.141 273.3 247.438 273.222H247.32C246.617 273.144 245.913 273.026 245.209 272.909H245.072C244.388 272.753 243.704 272.597 243.039 272.401H242.863C242.218 272.206 241.553 271.991 240.908 271.737L240.674 271.659C240.048 271.386 239.442 271.112 238.855 270.8L238.582 270.663C237.996 270.351 237.409 270.019 236.861 269.648L236.607 269.491C236.021 269.101 235.454 268.671 234.906 268.241L234.75 268.124C234.144 267.636 233.577 267.109 233.03 266.563C232.483 266.016 231.955 265.43 231.466 264.844H231.446L231.329 264.688C230.899 264.141 230.469 263.574 230.078 262.988C230.039 262.891 229.981 262.813 229.922 262.734V262.754C229.609 262.188 229.257 261.602 228.944 261.016L228.808 260.742C228.495 260.157 228.221 259.532 227.947 258.907L227.869 258.692C227.615 258.068 227.38 257.403 227.185 256.739V256.583C226.989 255.9 226.814 255.216 226.677 254.513C226.696 254.474 226.696 254.435 226.677 254.396H226.696C226.559 253.693 226.461 252.99 226.383 252.287V252.17C226.266 251.447 226.266 250.725 226.266 249.983V104.048C226.266 91.1008 236.784 80.6134 249.726 80.6134C262.687 80.6136 273.185 91.1009 273.185 104.048L273.186 193.43L459.825 7.01086C464.204 2.53903 470.206 0.019648 476.462 0.000114992Z" fill="currentColor"/>
</svg>
