<svg width="1000" height="1000" viewBox="0 0 1000 1000" fill="none" xmlns="http://www.w3.org/2000/svg">
<rect width="1000" height="1000" rx="500" fill="currentColor"/>
<path fill-rule="evenodd" clip-rule="evenodd" d="M748.225 652.986C630.905 616.144 442.123 543.534 425.345 531.265C408.601 520.105 394.074 481.009 390.71 440.804C387.346 389.44 404.128 338.041 463.344 341.399C470.034 345.871 478.979 351.451 490.143 355.922C556.049 383.858 689.012 405.069 760.494 415.121C773.912 476.536 773.912 543.567 760.494 607.242C757.13 622.873 752.658 638.504 748.222 653.026L748.225 652.986ZM782.86 611.672C764.97 696.553 723.644 773.636 664.424 820.529L658.843 825C519.191 751.279 378.432 677.557 238.781 602.729L236.563 600.512C226.508 579.301 218.672 558.053 214.236 535.734C208.655 514.522 206.4 492.166 206.4 468.738C206.4 387.22 238.817 314.608 291.307 260.989C344.942 208.479 418.685 175 499.119 175C571.753 175 628.711 196.211 673.404 229.728C728.148 271.041 762.783 332.491 779.529 400.593C797.419 467.588 797.419 542.416 782.893 611.663L782.86 611.672Z" fill="white"/>
</svg>
