<svg width="1000" height="1000" viewBox="0 0 1000 1000" fill="none" xmlns="http://www.w3.org/2000/svg">
<rect width="1000" height="1000" rx="500" fill="currentColor"/>
<path d="M336.125 250C310.246 250 289.25 270.996 289.25 296.875V687.5H273.625C265.007 687.5 258 694.507 258 703.125V734.375C258 742.993 265.007 750 273.625 750H586.125C594.743 750 601.75 742.993 601.75 734.375V703.125C601.75 694.507 594.743 687.5 586.125 687.5H570.5V453.125H586.125C603.386 453.125 617.375 467.114 617.375 484.375V609.375C617.375 635.254 638.371 656.25 664.25 656.25C690.129 656.25 711.125 635.254 711.125 609.375V406.25C728.386 406.25 742.375 392.261 742.375 375V336.548C742.375 331.885 738.615 328.125 733.952 328.125H726.75V289.673C726.75 285.01 722.99 281.25 718.327 281.25C714.006 281.592 710.783 285.352 711.125 289.673V328.125H679.875V289.673C679.875 285.01 676.115 281.25 671.452 281.25C667.131 281.592 663.908 285.352 664.25 289.673V328.125H657.561C652.629 328.125 648.625 332.129 648.625 337.036V375C648.625 392.261 662.614 406.25 679.875 406.25V609.375C679.875 617.993 672.868 625 664.25 625C655.632 625 648.625 617.993 648.625 609.375V484.375C648.625 449.854 620.646 421.875 586.125 421.875H570.5V296.875C570.5 270.996 549.504 250 523.625 250H336.125ZM351.75 296.875H508C516.618 296.875 523.625 303.882 523.625 312.5V390.625C523.625 399.243 516.618 406.25 508 406.25H351.75C343.132 406.25 336.125 399.243 336.125 390.625V312.5C336.125 303.882 343.132 296.875 351.75 296.875ZM442.3 472.019C445.742 471.457 448.647 474.631 447.793 478.025L436.148 524.606C435.293 528 437.857 531.272 441.348 531.272H469.643C476.186 531.272 479.995 538.669 476.186 543.991L422.06 619.773C418.935 624.167 412.05 620.969 413.369 615.769L425.015 569.187C425.869 565.793 423.306 562.522 419.814 562.522L391.519 562.498C384.976 562.498 381.168 555.1 384.976 549.778L439.102 473.996C439.859 472.947 441.006 472.214 442.3 472.019Z" fill="white"/>
</svg>
