<svg width="1000" height="1000" viewBox="0 0 1000 1000" fill="none" xmlns="http://www.w3.org/2000/svg">
<rect width="1000" height="1000" rx="500" fill="currentColor"/>
<path d="M601.02 228.297C661.503 228.297 708.933 245.959 746.148 273.868C791.734 308.27 820.575 359.44 834.52 416.149C849.417 471.937 849.417 534.247 837.32 591.909L837.293 591.917C822.396 662.598 787.984 726.786 738.671 765.834L734.022 769.558C706.219 754.881 678.364 740.202 650.48 725.513C669.599 694.931 684.118 660.63 693.894 625.014L694.772 624.754L699.869 600.458L700.48 597.493C700.915 595.348 701.335 593.196 701.739 591.038C738.719 604.402 776.287 617.348 807.702 627.213L807.699 627.247C811.393 615.155 815.118 602.138 817.919 589.122C829.092 536.1 829.092 480.282 817.919 429.141C786.696 424.75 741.387 417.801 697.439 408.83C697.179 407.816 696.915 406.802 696.646 405.791C680.936 342.225 647.828 281.99 593.029 240.635L592.979 240.597L592.928 240.56L591.88 239.777C587.055 236.196 582.096 232.766 577 229.497C584.912 228.704 592.925 228.297 601.02 228.297ZM397.751 228.296C458.235 228.296 505.666 245.958 542.882 273.867C588.468 308.269 617.308 359.439 631.253 416.147C646.15 471.934 646.151 534.244 634.055 591.905L634.027 591.913C619.13 662.594 584.717 726.781 535.403 765.829L530.756 769.552C414.466 708.164 297.254 646.776 180.964 584.467L179.117 582.62C170.745 564.958 164.219 547.264 160.525 528.679C155.878 511.016 154 492.399 154 472.892C154 405.012 180.995 344.547 224.703 299.898C269.366 256.173 330.773 228.296 397.751 228.296ZM367.211 367.751C317.901 364.955 303.927 407.754 306.728 450.525C309.529 484.004 321.626 516.558 335.569 525.852C349.54 536.068 506.742 596.531 604.436 627.209L604.434 627.243C608.127 615.151 611.851 602.134 614.652 589.118C625.826 536.096 625.826 480.279 614.652 429.139C555.128 420.769 444.409 403.106 389.527 379.844C380.232 376.12 372.782 371.474 367.211 367.751Z" fill="white"/>
</svg>
