<svg width="1000" height="1000" viewBox="0 0 1000 1000" fill="none" xmlns="http://www.w3.org/2000/svg">
<rect width="1000" height="1000" rx="500" fill="currentColor"/>
<path d="M833.374 257.295C816.583 245.512 798.336 237.739 779.098 232.649C740.623 222.468 698.175 222.905 655.74 223.375C613.306 223.844 570.87 224.315 532.382 214.101C513.93 209.217 496.236 201.622 480.43 190.913C467.793 182.329 456.272 171.578 446.308 159.545L449.951 149.704C455.703 134.166 447.77 116.907 432.232 111.155C416.694 105.4 399.435 113.336 393.683 128.874L162.306 753.873C156.554 769.411 164.487 786.67 180.025 792.422C183.46 793.693 186.976 794.296 190.436 794.296C202.628 794.296 214.093 786.807 218.574 774.703L219.39 772.498L219.924 772.695L322.862 494.542C405.485 594.85 546.193 538.345 655.257 567.261C674.495 572.351 692.753 580.156 709.533 591.907C726.324 603.691 741.616 619.465 754.944 640.558C768.697 603.358 782.461 566.19 796.224 529.021C809.977 491.821 823.741 454.653 837.504 417.484C851.257 380.284 865.021 343.116 878.785 305.947C865.444 284.821 850.153 269.046 833.374 257.295ZM525.556 232.578C514.096 263.586 502.593 294.573 491.133 325.582C459.042 317.06 429.824 300.944 405.509 271.48C416.939 240.589 428.358 209.665 439.822 178.761C464.11 208.245 493.5 224.079 525.556 232.578ZM782.177 509.807C757.855 480.316 728.609 464.211 696.57 455.71C710.318 418.525 724.076 381.371 737.835 344.216C699.348 334.002 656.9 334.438 614.477 334.942C600.724 372.142 586.96 409.31 573.197 446.479C615.615 446.01 658.035 445.54 696.512 455.742C685.055 486.742 673.554 517.721 662.098 548.721C623.613 538.506 581.22 538.886 538.785 539.356C550.226 508.387 561.699 477.405 573.172 446.423C530.738 446.892 488.302 447.363 449.814 437.149C438.373 468.119 426.922 499.055 415.436 530.003C383.378 521.504 354.023 505.658 329.702 476.186C341.185 445.126 352.679 414.099 364.162 383.039C388.484 412.51 417.756 428.65 449.813 437.148L449.814 437.149C463.576 399.989 477.338 362.826 491.154 325.606C529.622 335.78 572.06 335.344 614.486 334.873C625.927 303.904 637.4 272.922 648.873 241.94C691.272 241.482 733.698 241.091 772.187 251.305C760.701 282.254 749.261 313.223 737.809 344.159C769.877 352.691 799.138 368.796 823.459 398.268C809.707 435.468 795.942 472.636 782.179 509.805L782.177 509.807Z" fill="white"/>
</svg>
