<svg width="1000" height="1000" viewBox="0 0 1000 1000" fill="none" xmlns="http://www.w3.org/2000/svg">
<rect width="1000" height="1000" fill="white"/>
<circle cx="500" cy="500" r="250" fill="currentColor"/>
<path d="M750 500C750 638.071 638.071 750 500 750C361.929 750 250 638.071 250 500C250 361.929 361.929 250 500 250C638.071 250 750 361.929 750 500Z" fill="white"/>
<path d="M630 500C630 428.203 571.797 370 500 370C428.203 370 370 428.203 370 500C370 571.797 428.203 630 500 630V690V750C361.929 750 250 638.071 250 500C250 361.929 361.929 250 500 250C638.071 250 750 361.929 750 500C750 638.071 638.071 750 500 750V690V630C571.797 630 630 571.797 630 500Z" fill="black"/>
</svg>
