<svg width="1200" height="1200" viewBox="0 0 1200 1200" fill="none" xmlns="http://www.w3.org/2000/svg">
<g filter="url(#filter0_d_84_39)">
<rect x="100" width="1000" height="1000" rx="500" fill="currentColor" shape-rendering="crispEdges"/>
<path d="M894 657.891V676.212C894 705.533 870.179 731.211 839.001 731.211H362.333C331.155 731.211 307.334 705.533 307.334 676.212V657.891H894ZM747.323 272.899V291.22H802.322C853.644 291.22 893.964 331.576 893.998 382.862V474.539C893.998 525.895 853.642 566.215 802.321 566.215L739.967 566.249C725.324 599.248 692.324 621.248 655.646 621.248H472.329C420.974 621.248 380.653 580.893 380.652 529.572V272.899H747.323ZM747.323 364.575V492.895H802.322C813.322 492.894 820.643 485.573 820.644 474.573V382.896C820.643 371.897 813.322 364.575 802.322 364.575H747.323Z" fill="white"/>
</g>
<defs>
<filter id="filter0_d_84_39" x="0" y="0" width="1200" height="1200" filterUnits="userSpaceOnUse" color-interpolation-filters="sRGB">
<feFlood flood-opacity="0" result="BackgroundImageFix"/>
<feColorMatrix in="SourceAlpha" type="matrix" values="0 0 0 0 0 0 0 0 0 0 0 0 0 0 0 0 0 0 127 0" result="hardAlpha"/>
<feOffset dy="100"/>
<feGaussianBlur stdDeviation="50"/>
<feComposite in2="hardAlpha" operator="out"/>
<feColorMatrix type="matrix" values="0 0 0 0 0 0 0 0 0 0 0 0 0 0 0 0 0 0 0.5 0"/>
<feBlend mode="multiply" in2="BackgroundImageFix" result="effect1_dropShadow_84_39"/>
<feBlend mode="normal" in="SourceGraphic" in2="effect1_dropShadow_84_39" result="shape"/>
</filter>
</defs>
</svg>
