<svg width="1000" height="1000" viewBox="0 0 1000 1000" fill="none" xmlns="http://www.w3.org/2000/svg">
<rect width="1000" height="1000" rx="500" fill="currentColor"/>
<path d="M794 657.891V676.212C794 705.533 770.179 731.211 739.001 731.211H262.333C231.155 731.211 207.334 705.533 207.334 676.212V657.891H794ZM647.323 272.899V291.22H702.322C753.644 291.22 793.964 331.576 793.998 382.862V474.539C793.998 525.895 753.642 566.215 702.321 566.215L639.967 566.249C625.324 599.248 592.324 621.248 555.646 621.248H372.329C320.974 621.248 280.653 580.893 280.652 529.572V272.899H647.323ZM647.323 364.575V492.895H702.322C713.322 492.894 720.643 485.573 720.644 474.573V382.896C720.643 371.897 713.322 364.575 702.322 364.575H647.323Z" fill="white"/>
</svg>
