<svg width="1200" height="1200" viewBox="0 0 1200 1200" fill="none" xmlns="http://www.w3.org/2000/svg">
<g filter="url(#filter0_d_84_63)">
<rect x="100" width="1000" height="1000" rx="500" fill="currentColor" shape-rendering="crispEdges"/>
<path d="M830.633 378.765C826.618 356.009 814.5 335.485 796.511 320.958L786.274 270.577C779.801 238.211 749.843 216.056 717.027 219.318C684.185 222.58 659.195 250.229 659.22 283.222V337.618C649.711 349.887 643.363 364.288 640.754 379.568H557.255C554.646 364.288 548.298 349.886 538.789 337.618V283.222C538.814 250.229 513.825 222.58 480.982 219.318C448.165 216.056 418.208 238.211 411.736 270.577L401.499 320.958C383.509 335.485 371.391 356.009 367.377 378.765C367.377 378.765 318 620.028 318 650.537C318 697.154 342.864 740.209 383.232 763.518C423.6 786.828 473.327 786.827 513.696 763.518C554.064 740.21 578.928 697.155 578.928 650.537C578.928 621.232 570.699 540.138 570.699 540.138H627.301C627.301 540.138 619.072 621.229 619.072 650.537C619.072 697.154 643.936 740.209 684.304 763.518C724.672 786.828 774.4 786.827 814.768 763.518C855.137 740.21 880 697.155 880 650.537C880 620.028 830.623 378.765 830.623 378.765H830.633ZM451.072 278.406C453.506 266.287 464.746 258.007 477.04 259.262C489.335 260.491 498.668 270.853 498.643 283.223V306.506C487.126 301.739 474.783 299.28 462.313 299.28C457.069 299.331 451.826 299.807 446.657 300.685L451.072 278.406ZM448.463 740.864C398.61 740.789 358.213 700.394 358.143 650.544C357.415 626.382 366.698 602.973 383.81 585.889C400.896 568.778 424.305 559.494 448.464 560.222C498.342 560.222 538.784 600.667 538.784 650.543C538.784 700.418 498.338 740.864 448.463 740.864ZM630.516 500H567.491L560.867 419.712H637.14L630.516 500ZM699.364 283.223C699.339 270.853 708.673 260.491 720.967 259.262C733.261 258.007 744.501 266.287 746.935 278.406L751.351 300.686C746.182 299.808 740.939 299.331 735.695 299.281C723.225 299.281 710.881 301.74 699.365 306.507L699.364 283.223ZM749.544 740.864C699.666 740.864 659.224 700.419 659.224 650.544C659.224 600.668 699.669 560.223 749.544 560.223C773.705 559.495 797.114 568.778 814.198 585.89C831.309 602.976 840.593 626.385 839.865 650.544C839.79 700.398 799.394 740.794 749.544 740.864Z" fill="white"/>
</g>
<defs>
<filter id="filter0_d_84_63" x="0" y="0" width="1200" height="1200" filterUnits="userSpaceOnUse" color-interpolation-filters="sRGB">
<feFlood flood-opacity="0" result="BackgroundImageFix"/>
<feColorMatrix in="SourceAlpha" type="matrix" values="0 0 0 0 0 0 0 0 0 0 0 0 0 0 0 0 0 0 127 0" result="hardAlpha"/>
<feOffset dy="100"/>
<feGaussianBlur stdDeviation="50"/>
<feComposite in2="hardAlpha" operator="out"/>
<feColorMatrix type="matrix" values="0 0 0 0 0 0 0 0 0 0 0 0 0 0 0 0 0 0 0.5 0"/>
<feBlend mode="multiply" in2="BackgroundImageFix" result="effect1_dropShadow_84_63"/>
<feBlend mode="normal" in="SourceGraphic" in2="effect1_dropShadow_84_63" result="shape"/>
</filter>
</defs>
</svg>
