<svg width="1000" height="1000" viewBox="0 0 1000 1000" fill="none" xmlns="http://www.w3.org/2000/svg">
<rect width="1000" height="1000" rx="500" fill="currentColor"/>
<path d="M772.274 670.049C823.133 669.969 864.328 628.796 864.41 577.969V375.673C864.464 351.237 854.749 327.794 837.411 310.574L717.091 189.661L670.445 236.279L730.349 296.442L722.298 334.905L722.325 334.879C717.306 358.429 726.726 382.676 746.292 396.678L798.439 433.961V578.159C798.439 592.59 786.737 604.284 772.298 604.284C757.858 604.284 746.157 592.59 746.157 578.159V523.924C746.076 473.096 704.879 431.926 654.021 431.843H619.667V307.545C619.641 276.699 609.012 246.818 589.581 222.866C570.123 198.914 543.043 182.365 512.822 175.981C467.008 166.673 419.744 166.673 373.903 175.981C343.764 182.418 316.737 198.995 297.329 222.947C277.952 246.873 267.35 276.752 267.35 307.543V688.184H245.208C222.878 688.184 204.789 706.262 204.789 728.579C204.789 750.895 222.878 769 245.208 769H641.51C663.84 769 681.956 750.895 681.956 728.579C681.956 706.262 663.84 688.184 641.51 688.184H619.476V497.774H653.829C668.215 497.801 679.89 509.469 679.916 523.846V577.893C679.943 602.355 689.686 625.798 706.997 643.099C724.307 660.372 747.791 670.055 772.268 670.055L772.274 670.049ZM489.689 468.989H397.203C381.154 468.989 368.137 455.981 368.137 439.94C368.137 423.901 381.153 410.891 397.203 410.891H489.689C505.739 410.891 518.756 423.9 518.756 439.94C518.756 455.98 505.739 468.989 489.689 468.989ZM489.689 356.872H397.203C381.154 356.872 368.137 343.863 368.137 327.823C368.137 311.784 381.153 298.774 397.203 298.774H489.689C505.739 298.774 518.756 311.783 518.756 327.823C518.756 343.863 505.739 356.872 489.689 356.872Z" fill="white"/>
</svg>
