<svg width="1200" height="1200" viewBox="0 0 1200 1200" fill="none" xmlns="http://www.w3.org/2000/svg">
<g filter="url(#filter0_d_77_36)">
<rect x="100" width="1000" height="1000" rx="500" fill="currentColor" shape-rendering="crispEdges"/>
<path d="M872.274 670.049C923.133 669.969 964.328 628.796 964.41 577.969V375.673C964.464 351.237 954.749 327.794 937.411 310.574L817.091 189.661L770.445 236.279L830.349 296.442L822.298 334.905L822.325 334.879C817.306 358.429 826.726 382.676 846.292 396.678L898.439 433.961V578.159C898.439 592.59 886.737 604.284 872.298 604.284C857.858 604.284 846.157 592.59 846.157 578.159V523.924C846.076 473.096 804.879 431.926 754.021 431.843H719.667V307.545C719.641 276.699 709.012 246.818 689.581 222.866C670.123 198.914 643.043 182.365 612.822 175.981C567.008 166.673 519.744 166.673 473.903 175.981C443.764 182.418 416.737 198.995 397.329 222.947C377.952 246.873 367.35 276.752 367.35 307.543V688.184H345.208C322.878 688.184 304.789 706.262 304.789 728.579C304.789 750.895 322.878 769 345.208 769H741.51C763.84 769 781.956 750.895 781.956 728.579C781.956 706.262 763.84 688.184 741.51 688.184H719.476V497.774H753.829C768.215 497.801 779.89 509.469 779.916 523.846V577.893C779.943 602.355 789.686 625.798 806.997 643.099C824.307 660.372 847.791 670.055 872.268 670.055L872.274 670.049ZM589.689 468.989H497.203C481.154 468.989 468.137 455.981 468.137 439.94C468.137 423.901 481.153 410.891 497.203 410.891H589.689C605.739 410.891 618.756 423.9 618.756 439.94C618.756 455.98 605.739 468.989 589.689 468.989ZM589.689 356.872H497.203C481.154 356.872 468.137 343.863 468.137 327.823C468.137 311.784 481.153 298.774 497.203 298.774H589.689C605.739 298.774 618.756 311.783 618.756 327.823C618.756 343.863 605.739 356.872 589.689 356.872Z" fill="white"/>
</g>
<defs>
<filter id="filter0_d_77_36" x="0" y="0" width="1200" height="1200" filterUnits="userSpaceOnUse" color-interpolation-filters="sRGB">
<feFlood flood-opacity="0" result="BackgroundImageFix"/>
<feColorMatrix in="SourceAlpha" type="matrix" values="0 0 0 0 0 0 0 0 0 0 0 0 0 0 0 0 0 0 127 0" result="hardAlpha"/>
<feOffset dy="100"/>
<feGaussianBlur stdDeviation="50"/>
<feComposite in2="hardAlpha" operator="out"/>
<feColorMatrix type="matrix" values="0 0 0 0 0 0 0 0 0 0 0 0 0 0 0 0 0 0 0.5 0"/>
<feBlend mode="multiply" in2="BackgroundImageFix" result="effect1_dropShadow_77_36"/>
<feBlend mode="normal" in="SourceGraphic" in2="effect1_dropShadow_77_36" result="shape"/>
</filter>
</defs>
</svg>
