<svg width="1000" height="1000" viewBox="0 0 1000 1000" fill="none" xmlns="http://www.w3.org/2000/svg">
<rect width="1000" height="1000" rx="500" fill="currentColor"/>
<path d="M462.744 224.728C484.323 206.413 516.013 206.413 537.591 224.728L777.616 424.79C784.749 430.316 788.902 438.865 788.812 447.887C788.879 461.059 788.88 473.983 788.88 486.749L788.874 486.759C789.438 490.774 788.084 494.834 785.218 497.698C782.329 500.585 778.288 501.938 774.248 501.374H721.611C713.237 501.374 711.905 502.818 711.905 511.299V688.45C712.695 698.961 708.903 709.291 701.499 716.802C694.118 724.313 683.826 728.261 673.308 727.651H575.076C561.849 727.651 558.26 723.839 558.26 710.329V619.564C558.169 590.784 536.885 566.47 508.354 562.545C479.824 558.62 452.761 576.282 444.886 603.98C443.08 610.385 442.177 617.016 442.177 623.67V710.687C442.177 723.791 438.182 728.009 424.842 728.009H328.171C303.094 728.009 287.723 712.987 288.062 687.996V511.475C288.062 503.445 286.549 501.956 278.581 501.956H229.127C215.133 501.956 211.047 498.077 211.047 484.634V449.561C210.505 440.043 214.659 430.862 222.152 424.976C295.647 363.851 369.095 302.703 442.521 241.531L462.744 224.728ZM634.124 211.244C655.446 210.906 676.789 210.906 698.109 211.244C707.874 211.064 716.027 218.727 716.452 228.554C716.676 262.834 716.341 296.754 716.341 332.07L671.615 294.68C654.415 280.323 637.215 265.831 620.015 251.587C617.081 249.626 615.468 246.178 615.826 242.64C616.162 238.718 615.826 234.728 615.826 230.762C615.49 225.668 617.282 220.687 620.753 216.991C624.224 213.295 629.063 211.199 634.124 211.244Z" fill="white"/>
</svg>
