<svg width="1001" height="1000" viewBox="0 0 1001 1000" fill="none" xmlns="http://www.w3.org/2000/svg">
<rect x="0.400024" width="1000" height="1000" rx="500" fill="currentColor"/>
<path d="M746.773 683.625C793.266 683.552 830.924 645.947 831 599.525V414.761C831.049 392.444 822.168 371.032 806.318 355.305L696.326 244.87L653.684 287.448L708.446 342.397L701.086 377.527L701.11 377.502C696.522 399.012 705.134 421.157 723.02 433.946L770.691 467.998V599.698C770.691 612.879 759.994 623.559 746.794 623.559C733.594 623.559 722.897 612.879 722.897 599.698V550.164C722.823 503.741 685.163 466.139 638.67 466.064H607.265V352.538C607.241 324.365 597.525 297.074 579.762 275.198C561.974 253.321 537.219 238.206 509.591 232.376C467.71 223.875 424.504 223.875 382.597 232.376C355.045 238.255 330.338 253.395 312.596 275.271C294.882 297.124 285.191 324.414 285.191 352.536V700.188H264.949C244.536 700.188 228 716.699 228 737.082C228 757.464 244.536 774 264.949 774H627.233C647.646 774 664.207 757.464 664.207 737.082C664.207 716.699 647.646 700.188 627.233 700.188H607.09V526.28H638.495C651.646 526.305 662.318 536.961 662.343 550.092V599.456C662.367 621.798 671.273 643.209 687.098 659.01C702.923 674.787 724.391 683.631 746.767 683.631L746.773 683.625ZM488.445 499.99H403.897C389.226 499.99 377.326 488.109 377.326 473.459C377.326 458.809 389.225 446.928 403.897 446.928H488.445C503.116 446.928 515.016 458.809 515.016 473.459C515.016 488.108 503.117 499.99 488.445 499.99ZM488.445 397.59H403.897C389.226 397.59 377.326 385.709 377.326 371.059C377.326 356.409 389.225 344.527 403.897 344.527H488.445C503.116 344.527 515.016 356.408 515.016 371.059C515.016 385.708 503.117 397.59 488.445 397.59Z" fill="white"/>
</svg>
