<?xml version="1.0" encoding="UTF-8"?>
<svg id="Layer_2" data-name="Layer 2" xmlns="http://www.w3.org/2000/svg" viewBox="0 0 3499.99401 3499.9941">
  <defs>
    <style>
      .cls-1 {
        fill-rule: evenodd;
      }
    </style>
  </defs>
  <g id="Layer_1-2" data-name="Layer 1">
    <path class="cls-1" d="M1749.99701,0C783.49611,0,0,783.4961,0,1749.9971s783.49611,1749.997,1749.99701,1749.997,1749.997-783.4961,1749.997-1749.997S2716.49791,0,1749.99701,0ZM63.4393,1354.9609c52.3559,62.9009,28.8567,32.6834,78.1512,100.885,24.378-140.7402,68.9669-281.0835,127.5874-408.9826-41.2157-60.9732-27.496-38.8064-58.1669-91.9278,3.9685-7.6816,8.022-15.3637,12.1323-23.0171,33.4771,72.5103,20.126,40.6485,47.3102,112.1954,21.9118-47.6221,45.7795-93.4869,71.263-136.9986,47.39531-80.8442,100.4315-155.7353,158.1166-224.7876-21.8835-63.1274-15.137-40.9038-30.6142-98.6172,5.8393-6.4062,11.7355-12.7558,17.6882-19.1054,13.15272,76.3369,9.1842,46.4599,15.9874,114.0376,93.9402-111.855,200.29609-208.0347,315.52452-288.085-4.4222-60.9731-3.6851-40.2519-3.6851-98.5889,7.285-4.6772,14.6268-9.2978,22.0251-13.8613-6.8597,74.9478-3.3731,48.8125-13.2093,108.8501,118.3181-81.4678,245.8487-146.0976,378.8503-193.2095,11.0269-57.5713,6.6332-38.4658,21.5717-94.167,8.2489-2.6362,16.526-5.187,24.8599-7.6816-25.7103,69.7324-16.1575,46.8564-39.9969,99.666,134.3056-46.9419,274.0253-76.1387,415.3324-87.1938,25.1433-51.9307,16.1575-34.9795,44.8725-84.6992,8.6456-.3965,17.3197-.7085,26.0219-.9917-42.633,60.3496-27.9212,41.3291-63.7795,85.1523,140.9954-10.4028,283.4645-2.7778,423.5245,23.5562,37.1905-43.0582,24.378-29.2535,64.8282-69.7042,8.4755,1.8428,16.9228,3.7984,25.3984,5.7828-56.5791,47.0835-37.814,32.7968-83.1401,65.3388,137.3388,26.4473,272.268,70.9229,401.1308,133.6817,48.7559-33.0801,32.0318-22.5923,82.0347-51.4771,7.6821,3.9971,15.3638,8.0503,23.0176,12.1607-67.6065,31.1811-44.4756,21.685-99.0142,42.2929,123.562,60.8033,241.4834,138.586,350.5322,233.688,60.7178-21.0332,39.5713-14.6264,96.6895-29.9053,6.3779,5.8394,12.7558,11.7354,19.0771,17.688-75.4863,12.9829-47.0835,9.2412-111.7983,15.7325,33.2222,29.1684,65.6787,59.8393,97.1435,92.2675,67.0391,69.0806,127.814,144.1988,181.6158,223.9937,69.7041-4.9605,45.2124-4.1953,105.7041-4.1953,4.6484,7.2851,9.269,14.6553,13.8613,22.0254-78.3213-7.1719-46.29-3.0332-117.4111-14.5987,78.5478,117.1846,142.0439,244.4317,188.1069,377.6319,74.353,14.3716,48.104,8.1635,107.8018,24.1794,2.6362,8.2488,5.1875,16.5545,7.7104,24.8599-75.6284-27.8645-42.3784-14.2866-114.7183-46.7718,45.7793,133.0298,74.1827,271.9844,82.8848,412.7247,75.7134,36.9353,48.9829,22.4785,104.0601,54.2832.3969,8.6457.7085,17.3198.9922,25.9936-67.9751-47.9902-35.2632-23.2724-105.024-79.9936,1.6446,26.8725,2.6079,53.8017,2.8067,80.7876.1699,23.1589.0566,18.8786-.9073,42.0659-1.1621-21.033-1.8711-41.896-2.9765-62.8723-36.7652-701.8582-503.603-1302.7181-1182.3023-1493.6599C1317.48671-64.9131,408.92599,452.6645,177.44881,1332.1421c-38.69291,146.9763-47.36691,255.7417-55.64411,405.7793-3.8835-91.2471,3.2598-186.0376,19.5307-280.6299-60.1512-52.2424-39.3732-32.6267-83.6788-76.9605,1.8709-8.4472,3.7985-16.8945,5.7827-25.3701ZM3173.35781,1749.9971c0,393.052-159.3071,748.885-416.8916,1006.4694-257.584,257.5843-613.417,416.8914-1006.4692,416.8914-393.0804,0-748.9135-159.3071-1006.49783-416.8914-257.58419-257.5844-416.89129-613.4174-416.89129-1006.4694,0-393.0804,159.3071-748.9134,416.89129-1006.4976,257.58433-257.5845,613.41743-416.8916,1006.49783-416.8916,393.0522,0,748.8852,159.3071,1006.4692,416.8916,257.5845,257.5842,416.8916,613.4172,416.8916,1006.4976ZM18.6519,1804.9326c68.2583,48.189,35.00791,23.074,105.8457,80.6741-76.7055-37.4175-49.578-22.7339-104.8535-54.6521-.3969-8.6741-.7087-17.3482-.9922-26.022ZM214.97949,2301.7043c-83.7638-16.2993-53.7733-9.156-115.4268-25.6818-2.60789-8.2491-5.159-16.5545-7.6818-24.8599,78.4063,28.885,39.77,13.2378,123.1086,50.5132v.0285ZM291.94009,2685.2602c-4.6771-7.2851-9.26929-14.6269-13.8614-22.0253,83.1969,7.6252,41.8394,2.4946,131.98111,16.9511-85.12441,5.9246-54.28342,5.0742-118.11971,5.0742ZM583.68189,3030.7751c-6.3779-5.8393-12.7559-11.7636-19.0772-17.6882,82.3182-14.1731,41.0457-8.4473,131.8678-17.8015-80.7024,27.7795-51.137,18.9639-112.7906,35.4897ZM954.90711,3288.9831c-7.6819-3.9685-15.3638-8.0505-23.0173-12.1323,75.8552-35.008,37.4741-18.7654,122.7685-51.3354h.0284c-70.7812,47.707-44.5039,31.5495-99.7796,63.4677ZM1380.33081,3442.3374c-8.4756-1.8709-16.9228-3.7983-25.3701-5.7827,64.2047-53.4614,31.3229-27.8362,105.3071-81.3543-56.0125,64.4031-34.8094,42.0093-79.937,87.137ZM1830.92621,3480.3215c-8.6455.4253-17.3199.7371-25.9937.9922,48.189-68.23,23.0454-34.9795,80.6455-105.8174-37.417,76.7056-22.7339,49.5782-54.6518,104.8252ZM2276.02241,3400.4414c-8.2774,2.6077-16.5542,5.1589-24.8882,7.6819,28.9131-78.4065,13.2378-39.7703,50.5415-123.1087-16.2989,83.7637-9.1275,53.7732-25.6533,115.4268ZM2685.26011,3208.0539c-7.3134,4.6487-14.6552,9.2693-22.0253,13.8614,7.5971-83.1968,2.4663-41.8394,16.9228-131.981,5.9531,85.1243,5.1025,54.2835,5.1025,118.1196ZM3013.05851,2935.3894c-14.1734-82.3181-8.419-41.0457-17.8013-131.8679,27.7793,80.674,18.9917,51.1372,35.4898,112.7907-5.8394,6.378-11.7359,12.7559-17.6885,19.0772ZM670.98898,2778.4067c-250.75279-264.8694-402.60479-624.0757-404.58899-990.1135-.1134-21.26-.0283-17.0364.9921-38.2961,1.1622,19.1904,1.8709,38.0693,2.8914,57.2314,34.1858,632.3528,449.60319,1174.5073,1059.25041,1354.0537,800.7023,235.7859,1638.9357-234.9639,1851.9025-1041.9306,35.6035-134.9292,42.7749-231.9593,51.1372-369.3545,11.8487,246.3874-69.1655,527.8393-190.6865,741.26-493.8804,867.4582-1684.0067,1012.7055-2370.89812,287.1496ZM3276.82261,2568.1042c-35.0083-75.8552-18.7656-37.4741-51.3071-122.7968,47.707,70.7526,31.5493,44.5039,63.439,99.7795-3.9683,7.6819-8.022,15.3355-12.1319,23.0173ZM3436.52631,2145.0334c-53.4331-64.2048-27.8077-31.323-81.354-105.3071h.0283c64.3745,56.0125,41.9809,34.8093,87.1084,79.937-1.8423,8.4756-3.7984,16.9229-5.7827,25.3701Z"/>
    <path class="cls-1" d="M1560.24591,1749.6001h1.1621c.1985-103.9746,84.5575-188.2202,188.589-188.2202s188.3623,84.2456,188.5888,188.2202h1.1343c.1982-57.2315,46.6582-103.5493,103.9463-103.5493,1.4741,0,2.9477.0283,4.4219.0849-31.6348-90.737-103.521-162.6235-194.2583-194.2299.0566,1.4458.0849,2.9196.0849,4.4218,0,57.4019-46.5161,103.9185-103.9179,103.9185s-103.9465-46.5166-103.9465-103.9185c0-1.5022.0284-2.976.0851-4.4218-90.737,31.6064-162.6236,103.4929-194.2299,194.2299,1.4456-.0566,2.9196-.0849,4.4219-.0849,57.2599,0,103.7198,46.3178,103.9183,103.5493Z"/>
    <path class="cls-1" d="M1749.99701,341.7168c-388.885,0-740.9482,157.6348-995.8111,412.4692-254.83472,254.8631-412.46941,606.9261-412.46941,995.8111s157.6347,740.9482,412.46941,995.7827c254.8629,254.8347,606.9261,412.4695,995.8111,412.4695s740.9482-157.6348,995.7827-412.4695c254.8349-254.8345,412.4697-606.8977,412.4697-995.7827s-157.6348-740.948-412.4697-995.8111c-254.8345-254.8344-606.8975-412.4692-995.7827-412.4692ZM2735.09321,2735.0933c-252.1133,252.1132-600.4063,408.0473-985.0962,408.0473-384.7182,0-733.0111-155.9341-985.1246-408.0473-252.11342-252.1136-408.04722-600.4063-408.04722-985.0962,0-384.7183,155.9338-733.011,408.04722-985.1246,252.1135-252.1132,600.4064-408.0473,985.1246-408.0473,384.6899,0,732.9829,155.9341,985.0962,408.0473,252.1132,252.1136,408.0473,600.4063,408.0473,985.1246,0,384.6899-155.9341,732.9826-408.0473,985.0962Z"/>
    <path class="cls-1" d="M2882.28261,1104.4391c-.1133-.1989-.2251-.3983-.3386-.5972-.9409-1.6449-1.885-3.2877-2.8328-4.9281-76.1467-132.2933-176.4765-252.6526-299.4214-353.8996-.8664-.7162-1.738-1.4261-2.6062-2.14-1.7224-1.411-3.448-2.8192-5.1794-4.2227-224.2315-182.4597-510.2898-291.8546-821.9072-291.8546-9.033,0-18.0381.1172-27.0273.3001-.0326-.0415-.068-.089-.1003-.1297-83.4336,1.6538-167.0707,11.3451-249.7288,29.307-.9633.2084-1.9271.4158-2.8896.6263-3.9476.8673-7.8936,1.7494-11.8366,2.6546-3.0987.7082-6.1894,1.4369-9.2796,2.1672-.3263.0774-.6525.1546-.9787.2323-156.2663,37.0576-301.6399,102.2435-430.479,189.9283-133.6504,90.5793-251.6141,206.8228-345.67322,345.6175-87.2134,128.1013-152.185,272.5534-189.3739,427.8115-.4034,1.6761-.7984,3.355-1.1951,5.0334-.5188,2.2049-1.0462,4.4063-1.5538,6.6153-1.0975,4.7544-2.16028,9.5199-3.205,14.2915-.0297.136-.0596.272-.0892.4082-22.9512,104.9873-33.0922,214.0957-28.9416,325.3227,11.2496,317.399,136.00652,605.8948,334.92122,826.1446-.0105.0539-.0239.114-.0341.1672,90.4442,100.3997,197.1685,187.4202,317.6792,256.5733.5994.3454,1.1977.6923,1.7978,1.0371.7431.4248,1.4907.8435,2.2346,1.2668,122.8902,70.2405,258.314,121.0486,402.0929,148.2417,127.3285,24.324,259.5358,29.8169,392.6708,14.325.3569-.0408.7144-.0806,1.0713-.1216.6416-.0752,1.2832-.156,1.9248-.2322,148.8025-17.2874,289.9517-59.6501,419.1296-122.7383,1.1668-.5683,2.3323-1.1399,3.4976-1.7117,2.0886-1.0278,4.1794-2.052,6.262-3.0905,109.7785-54.6123,213.1286-125.4925,306.3442-212.3535.2966-.2759.5937-.5516.8901-.8279,3.2854-3.0669,6.5625-6.1468,9.8225-9.2534,2.201-2.0933,4.3841-4.2046,6.5701-6.313.5139-.4966,1.0293-.991,1.5427-1.4886,33.6526-32.5617,65.554-66.9199,95.5528-102.9216.0468.0022.0993.0064.1457.0083,64.1057-76.8694,119.6763-161.5437,165.0557-252.7475.572-1.1465,1.1431-2.2937,1.7117-3.4422,1.1635-2.3562,2.3166-4.7187,3.4665-7.0835,61.7791-126.6933,103.6165-264.8899,121.4358-410.5134.0049-.0029.0105-.0059.0154-.0088,16.4817-132.1682,12.781-267.7947-12.7896-402.2507-27.1176-144.1905-77.978-279.998-148.374-403.2096ZM2841.33581,1368.397c10.0064-5.7828,21.3731-12.5291,23.2442-14.3716,3.4297-3.43-3.0899-34.1006,9.581-40.5071,8.9575-4.5071,17.0078-4.252,25.937,1.9841,68.7119,181.3609,91.6724,370.1482,73.8423,552.8128-11.2817,3.2031-18.2832,6.8315-24.3496.7937-6.8599-6.8599-10.3745-21.4583-21.9683-30.5008-5.8959-4.5637-15.7324-7.3418-24.0097-8.9858,10.9136-156.5574-10.3179-313.1716-62.2769-461.2253ZM2886.32171,1855.7861c-.4253.1133-.8223.2268-1.2193.3118-25.0298,5.1875-226.8281-41.2442-296.3618-54.4253-69.5625-13.1809-81.4111-50.1448-91.1626-74.3528-9.7793-24.2077-14.4282-91.8706-21.0327-133.7099-6.5767-41.868,17.1211-80.0506,53.4331-101.5655,34.8374-20.6645,268.4976-136.4316,287.2344-145.7009,63.3828,167.1306,84.9263,341.0364,69.1089,509.4426ZM2461.91831,839.0268c5.2725-10.2612,11.1968-22.082,11.7637-24.6611,1.0205-4.7339-21.0327-27.0141-13.833-39.2314,5.1026-8.6743,12.0191-12.7559,22.8755-12.3594,155.8774,115.4268,277.2285,261.8647,360.9639,425.1684-7.7666,8.7876-11.6787,15.6475-20.0694,13.8333-9.4677-2.0693-20.3242-12.4158-34.9511-13.7764-7.4268-.6804-17.2061,2.2962-25.0581,5.4143-75.4302-137.622-177.959-257.8964-301.6915-354.3877ZM2763.18451,1224.7939c-.2549.3118-.5386.6236-.8218.8789-18.2837,17.9148-213.1372,87.9307-278.7876,114.4346-65.6221,26.4756-95.5845,1.7857-116.9009-13.2944-21.2881-15.0806-61.7671-69.4773-89.9434-101.1402-28.1762-31.6347-28.8564-76.5922-9.9497-114.3212,18.1421-36.1988,152.1641-259.9087,162.9073-277.8238,143.6601,106.3277,255.7983,241.0298,333.4961,391.2661ZM2300.51361,733.0679c-137.9624-74.8062-289.3037-120.3872-445.5782-134.4473-1.1054-11.5088-2.5507-24.6328-3.458-27.0991-1.7007-4.5357-32.3149-11.3384-32.8818-25.5117-.397-10.0347,3.1748-17.2349,12.5288-22.7906,193.5498,12.6143,374.8823,69.959,533.7358,161.8584-1.7578,11.5933-1.3608,19.502-9.3828,22.5069-9.0708,3.4013-23.811.5669-36.8506,7.3701-6.6044,3.4297-13.2094,11.2534-18.1132,18.1133ZM2317.15321,759.6567c-.0571.4253-.1421.8223-.227,1.2193-5.6695,24.9448-131.5274,189.354-172.3462,247.1809-40.8194,57.8269-79.3701,53.2912-105.4493,52.1574-26.0786-1.1337-89.5747-24.9448-130.3935-36.2834-40.8189-11.3386-65.7637-48.7556-70.2993-90.7087-4.3653-40.2803-12.8975-300.8975-13.5777-321.7891,178.3843,11.5654,345.5713,64.0347,492.293,148.2236ZM1044.93561,802.5737c.3968,7.4551,4.7622,16.6958,8.9574,24.0093-125.3764,94.3936-229.7198,213.1084-307.50243,349.3984-10.9134-3.77-23.4425-7.937-26.07877-8.1355-4.81892-.3401-23.726,24.6897-36.87872,19.304-9.26928-3.7983-14.34328-10.0347-15.5055-20.863,91.92762-170.7874,219.45832-311.868,369.07092-418.1673,9.8079,6.4351,17.1496,9.3262,16.5544,17.8867-.6803,9.6661-9.3827,21.8838-8.6173,36.5674ZM1084.98901,822.5293c.3686.1987.7088.4536,1.0205.6802,20.3245,15.5341,117.5528,198.3403,153.1844,259.5119,35.6314,61.1433,15.477,94.3372,3.5999,117.5813-11.8772,23.2439-59.9244,71.0928-87.1937,103.521-27.2693,32.4002-71.6882,39.5435-111.7134,26.2207-38.4378-12.7558-279.0426-113.3291-298.31813-121.4079,84.64253-157.408,201.88343-287.6883,339.42043-386.1072ZM595.38898,1809.5246c-11.2536,2.7496-24.0378,6.0096-26.3339,7.2852-4.2519,2.3242-6.6614,33.5906-20.6078,36.1699-9.8646,1.8142-17.4898-.7085-24.3213-9.1841-14.9953-193.3796,16.0441-381.0048,84.4725-551.3103,11.7354.1133,19.474-1.4174,23.5842,6.0943,4.6488,8.5041,3.9402,23.4995,12.52912,35.4331,4.36538,6.0381,13.01108,11.4805,20.52288,15.3638-54.48188,147.1748-78.12288,303.4489-69.8457,460.1481ZM689.18748,1329.1372c.4251,0,.822,0,1.2188.0566,25.5119,2.0694,206.10712,103.2945,269.14962,135.4961,63.0426,32.2017,64.0347,71.0078,66.6143,97.0017,2.5794,25.9654-11.9906,92.211-17.4331,134.2205-5.4142,42.0093-38.9197,72-79.7953,82.46-39.2599,10.0061-296.02212,55.4455-316.60162,59.1023-13.86138-178.2142,14.3433-351.1561,76.8473-508.3372ZM810.76541,2424.1892c-7.9653,8.3623-16.9512,18.0283-18.2268,20.3528-2.296,4.2519,12.5858,31.8616,2.2394,41.5559-7.3134,6.8599-15.1087,8.8725-25.4268,5.4426-117.12762-154.6015-192.44412-329.2441-226.94182-509.4993,9.9213-6.2363,15.6189-11.707,23.1591-7.6252,8.504,4.6489,16.0157,17.6316,29.6788,23.0457,6.9449,2.7212,17.1496,2.6079,25.5684,1.8425,33.704,153.2693,98.3056,297.4961,189.94972,424.885ZM630.02838,1969.3137c.3401-.2268.7086-.4253,1.0488-.6238,22.5921-12.0471,229.26622-24.4912,299.70712-31.4643,70.4409-6.9734,92.2394,25.1433,108.4536,45.581,16.2141,20.4661,39.7417,84.0471,57.8834,122.3433,18.1418,38.2961,6.1796,81.6377-22.5638,112.5071-27.6094,29.6504-219.0614,206.674-234.4252,220.8755-107.97162-142.441-177.73232-303.1936-210.10392-469.2188ZM934.75281,2570.0886c111.2031,110.7212,243.5244,197.1777,389.4804,254.8062-2.1827,11.3386-4.5354,24.3496-4.3371,26.9575.3686,4.8472,27.8079,20.0127,24.3496,33.7607-2.4377,9.751-7.9085,15.6189-18.4535,18.3118-182.1259-66.7275-339.874-172.9419-466.3276-305.9717,4.9607-10.6299,6.8031-18.3118,15.3638-18.9355,9.6378-.6802,22.989,6.1797,37.4173,3.3449,7.3134-1.4458,15.8457-7.0583,22.5071-12.2739ZM926.30561,2539.8994c.17-.3967.3402-.7651.5385-1.1055,12.4724-22.3369,179.6316-144.5102,235.1339-188.4756,55.474-43.937,91.1906-28.7148,115.8804-20.2675,24.6897,8.4472,78.8882,49.2378,114.8599,71.6313,35.9432,22.3938,49.3227,65.3386,41.811,106.8662-7.2001,39.8553-72.5953,292.2803-77.8395,312.5198-167.8393-61.4551-313.4267-158.9954-430.3842-281.1687ZM1495.10561,2903.1028c5.3575-5.1592,9.5244-14.5135,12.3024-22.4788,153.4111,33.052,311.4708,34.2424,465.3922,3.8267,4.3086,10.7434,9.3545,22.9323,10.9419,25.03,2.9194,3.8833,34.2138,1.8142,38.7212,15.2502,3.2031,9.5245,1.7856,17.4332-5.6128,25.3985-189.2974,42.2646-379.4456,38.1828-557.7165-5.3574-1.559-11.6221-4.1669-19.1055,2.6646-24.2361,7.7668-5.8111,22.7054-7.2285,33.307-17.4331ZM1579.77651,2572.8948c22.9323-66.9544,61.2001-73.4456,86.5417-79.6819,25.3418-6.2361,92.9765-1.219,135.3545-1.8142,42.3497-.5952,76.7906,28.3181,92.9478,67.2944,15.4775,37.4175,96.9165,285.1655,103.4365,305.0081-174.416,39.0329-349.6253,35.6599-514.0915-3.9119-.0567-.4253-.1134-.822-.1418-1.219-1.559-25.54,73.0206-218.6929,95.9528-285.6755ZM2157.05211,2832.3498c146.92-55.1337,280.545-139.5495,393.6192-248.3432,9.4106,6.6897,20.2676,14.23,22.7339,15.1369,4.5351,1.701,29.7353-16.9511,40.8188-8.1069,7.8521,6.2927,10.9131,13.6912,8.9859,24.4063-136.4034,137.8772-298.5733,237.2314-472.1104,296.9575-7.5967-8.9292-13.833-13.8047-10.8286-21.8269,3.3735-9.0991,15.1655-18.3684,18.5957-32.6551,1.7007-7.2565.1416-17.3764-1.8145-25.5686ZM2126.06971,2827.4744c-.2837-.3118-.5386-.6236-.7939-.9639-15.1084-20.6362-56.7495-223.4551-73.6724-292.1953-16.9228-68.7117,11.792-94.8472,29.7354-113.8111,17.9433-18.9636,77.5561-51.2785,112.8754-74.6928,35.3199-23.3858,79.9371-17.6883,114.5767,6.3779,33.2788,23.1025,235.6724,187.512,251.8867,200.6931-125.6318,127.1338-274.876,219.0047-434.6079,274.5921ZM3010.51651,1973.3481c-23.437-8.6692-64.7378-15.8203-113.6782-22.9133-68.4571-9.8928-315.3545-37.644-379.9844-34.384-64.6299,3.2314-77.9526,95.2439-105.1655,148.592-27.1841,53.3479-68.2017,123.0237-45.2124,169.8804,22.9887,46.885,321.1938,329.4993,350.5322,340.6394,3.1435,1.1943,6.0823,2.2236,8.8325,3.1162-11.7815,13.8669-23.855,27.4773-36.2075,40.8262-15.0728-19.9444-45.897-48.2268-83.148-80.5662-52.2138-45.3259-244.9419-202.1384-301.0678-234.3401-56.126-32.2016-117.0708,38.0127-168.8033,68.2017-51.7036,30.1606-123.9023,66.614-129.8833,118.488-5.9809,51.8457,92.126,450.8223,110.7779,476.0222,2.0835,2.8135,4.0762,5.3604,5.9748,7.6692-17.4189,5.3059-34.9875,10.2678-52.7129,14.8421-1.8332-24.9065-12.4987-65.501-26.424-113.0215-19.4458-66.3875-96.8316-302.4851-126.6519-359.9151-29.792-57.4299-119.0268-31.2944-178.8662-33.874-59.811-2.5513-140.23-10.9133-173.3103,29.4802-33.0519,40.3938-166.1952,429.1089-164.0977,460.4034.2308,3.4804.5286,6.6911.8758,9.6526-17.6236-4.9634-35.09-10.2999-52.3964-15.9898,11.9208-21.9436,24.8905-61.876,38.8782-109.4014,19.5306-66.3308,82.0347-306.7939,87.9874-371.2253,5.9811-64.4314-83.2252-90.6804-132.1796-125.178-48.926-34.5259-112.0819-85.011-161.7448-68.8818-49.6631,16.1008-371.7639,271.1621-386.9292,298.6015-1.6271,2.9444-3.0614,5.7078-4.3338,8.304-12.0579-13.6118-23.8184-27.4924-35.2959-41.6123,21.8826-12.0835,54.2585-38.5772,91.5603-70.865,52.2992-45.2693,234.8505-213.7888,274.7056-264.7842,39.8268-50.9668-21.0048-121.2661-43.5402-176.7685-22.5354-55.4739-48.359-132.0945-98.8441-145.3606-50.5134-13.2945-459.35432,27.1843-486.96382,42.0945-3.01318,1.625-5.7614,3.2014-8.2711,4.7216-2.7543-17.9423-5.119-36.0122-7.12008-54.1919,24.94368,1.6753,66.53608-3.1135,115.39748-10.114,68.4567-9.8362,313.14332-52.9228,374.23002-74.2961,61.0867-21.3447,47.8772-113.3858,58.9322-172.2329,11.0269-58.8758,30.6993-137.282-4.592-175.7481-35.2914-38.4663-401.15922-225.4111-432.42532-227.7922-3.47-.2669-6.6835-.429-9.6567-.5066,7.4201-16.7043,15.1678-33.2308,23.2729-49.5493,20.0501,14.9104,57.71,33.4009,102.7177,53.9678,62.90082,28.7431,292.05362,124.7526,354.98262,139.8046,62.9576,15.052,101.5938-69.5336,142.6962-113.0739,41.1023-43.5686,100.0347-98.9009,91.1338-150.3499-8.9008-51.4204-215.6598-406.4595-240.6897-425.395-2.7158-2.0513-5.2787-3.8841-7.6936-5.527,15.1904-10.0205,30.6158-19.7124,46.2495-29.0936,8.8273,23.3823,30.4832,59.248,57.1984,100.8096,37.389,58.1953,178.2993,262.8281,223.115,309.5149,44.8158,46.6584,123.052-3.5999,181.1622-18,58.1102-14.4285,137.6221-29.1402,157.9465-77.2156,20.296-48.104,38.2677-458.5611,27.4394-488.0127-1.1565-3.1406-2.3022-6.0192-3.4272-8.6694,4.7278-.0514,9.4588-.0899,14.1988-.0899,13.5012,0,26.947.2346,40.3475.6495-5.1782,24.4677-6.3318,66.2722-6.3318,115.5712,0,69.165,7.937,317.48,20.4096,380.9761,12.4721,63.4963,105.4487,63.4963,162.1416,82.772,56.6928,19.2753,131.5278,49.8896,174.6142,20.4091,43.0869-29.4799,280.063-365.102,286.8662-395.7163.7407-3.3414,1.346-6.4505,1.8384-9.3427,15.9456,10.0162,31.6587,20.3676,47.1206,31.0572-17.6184,17.736-41.2734,52.289-68.0078,93.7972-37.4741,58.1387-165.3164,271.1622-189.2407,331.3135-23.8965,60.1228,54.2549,110.4947,91.4736,157.4077,37.1909,46.9136,83.5088,113.1875,135.6948,111.7417,52.1856-1.4455,433.2188-155.1967,455.4991-177.2219,2.4787-2.4519,4.7094-4.7788,6.7189-6.9792,7.7459,16.4908,15.1441,33.1766,22.1978,50.0429-24.3923,5.3548-63.0686,21.6836-108.1448,42.2024-62.9292,28.6585-285.6474,138.7844-338.2583,176.4568-52.6396,37.6441-14.0884,122.2866-8.164,181.8709,5.9526,59.5842,9.0991,140.3715,53.8017,167.3574,44.6738,27.0141,448.3277,103.6064,478.9986,97.115,3.3435-.7085,6.4206-1.4446,9.2548-2.1934-2.3962,18.1284-5.1638,36.1392-8.3105,54.02ZM2692.82851,2461.0964c-2.4375-7.03-9.2407-14.6836-15.3354-20.5229,93.8271-125.8015,160.6113-269.0645,196.9511-421.7102,11.5371.5385,24.7466,1.0205,27.2979.4536,4.7339-1.0205,15.8457-30.3591,29.9624-28.885,9.9775,1.0488,16.5825,5.6125,20.7495,15.6755-40.2236,189.7229-122.9673,360.9639-236.6929,505.0205-11.1972-3.4016-19.0771-4.1387-20.9199-12.5007-2.041-9.4678,2.8628-23.6411-2.0127-37.5308ZM2648.80651,2453.2161c-.3969-.1133-.7934-.2269-1.1621-.397-23.8677-9.1841-168.5483-157.2945-219.9404-205.9937-51.3638-48.6709-41.3574-86.1731-36.5103-111.8266,4.876-25.6536,37.5308-85.0679,54.5957-123.8457,17.0928-38.7781,57.6851-58.1104,99.8643-56.5796,40.479,1.4741,299.6221,30.3874,320.4004,32.7119-37.0205,174.8408-112.9043,332.8157-217.2476,465.9307ZM1668.92621,571.8052c-3.6851,6.4912-5.0457,16.6108-5.4425,25.0581-156.5292,11.622-308.4662,55.0771-447.5623,127.729-7.1433-9.0708-15.4489-19.3604-17.5465-20.9483-3.8834-2.8911-33.3355,7.9375-41.4708-3.6845-5.7544-8.2207-6.6331-16.1861-1.7576-25.9375,169.6536-93.9966,353.1969-143.773,536.5419-152.3052,4.7622,10.6865,9.3827,17.1211,4.2519,23.9809-5.7827,7.7671-19.7291,13.3511-27.0141,26.1075ZM1680.91661,912.501c-3.0897,70.6958-37.9558,87.7324-60.5196,100.885-22.5637,13.1245-88.8378,27.4111-129.3165,39.9402-40.4788,12.5293-81.6662-5.4707-108.1701-38.3243-25.4269-31.5214-173.4803-246.1606-185.3575-263.3671,156.3307-86.6836,325.3606-132.9449,494.2772-141.3921.1984.3686.3401.7656.4819,1.1338,8.7307,24.038-8.3055,230.4003-11.3954,301.1245Z"/>
    <path class="cls-1" d="M1749.99701,422.6177c-366.548,0-698.4001,148.5634-938.6079,388.7715-240.20802,240.208-388.77182,572.06-388.77182,938.6079s148.5638,698.3718,388.77182,938.5796c240.2078,240.208,572.0599,388.8,938.6079,388.8s698.3715-148.592,938.5796-388.8c240.208-240.2078,388.8002-572.0315,388.8002-938.5796s-148.5922-698.3999-388.8002-938.6079c-240.2081-240.2081-572.0313-388.7715-938.5796-388.7715ZM2682.17031,2682.1704c-238.564,238.5637-568.1479,386.1355-932.1733,386.1355-364.0536,0-693.6379-147.5718-932.2017-386.1355-238.56382-238.5637-386.10712-568.1482-386.10712-932.1733,0-364.0535,147.5433-693.6377,386.10712-932.2017,238.5638-238.5635,568.1481-386.1069,932.2017-386.1069,364.0254,0,693.6093,147.5434,932.1733,386.1069,238.564,238.564,386.1357,568.1482,386.1357,932.2017,0,364.0251-147.5717,693.6096-386.1357,932.1733Z"/>
    <path class="cls-1" d="M1749.99701,1576.5168c-95.5559,0-173.4803,77.9244-173.4803,173.4803,0,95.5275,77.9244,173.4804,173.4803,173.4804,95.5278,0,173.4804-77.9529,173.4804-173.4804,0-95.5559-77.9526-173.4803-173.4804-173.4803Z"/>
    <path class="cls-1" d="M1749.99701,1505.4521c27.0426,0,49.1245-22.0817,49.1245-49.1245,0-27.0708-22.0819-49.1526-49.1245-49.1526-27.0708,0-49.1527,22.0818-49.1527,49.1526,0,27.0428,22.0819,49.1245,49.1527,49.1245Z"/>
    <path class="cls-1" d="M1456.32761,1700.8442c-27.1558,0-49.1527,21.9971-49.1527,49.1529,0,27.1274,21.9969,49.1245,49.1527,49.1245,27.1276,0,49.1246-21.9971,49.1246-49.1245,0-27.1558-21.997-49.1529-49.1246-49.1529Z"/>
    <path class="cls-1" d="M1749.99701,1994.5137c-27.1559,0-49.1527,21.9968-49.1527,49.1528,0,27.1274,21.9968,49.1243,49.1527,49.1243,27.1275,0,49.1245-21.9969,49.1245-49.1243,0-27.156-21.997-49.1528-49.1245-49.1528Z"/>
    <path class="cls-1" d="M1994.51361,1749.9971c0,27.1274,21.997,49.1245,49.1528,49.1245,27.1274,0,49.1245-21.9971,49.1245-49.1245,0-27.1558-21.9971-49.1529-49.1245-49.1529-27.1558,0-49.1528,21.9971-49.1528,49.1529Z"/>
    <path class="cls-1" d="M1749.99701,1549.6728c25.7669,0,49.1245-10.4599,65.9907-27.3545,16.8945-16.8945,27.354-40.2236,27.354-65.9907,0-25.7951-10.4595-49.1242-27.354-66.0185-16.8662-16.8946-40.2238-27.3545-65.9907-27.3545-25.7952,0-49.1244,10.4599-66.0188,27.3545-16.8946,16.8943-27.3544,40.2234-27.3544,66.0185,0,25.7671,10.4598,49.0962,27.3544,65.9907,16.8944,16.8946,40.2236,27.3545,66.0188,27.3545ZM1690.38441,1396.7153c15.2504-15.2505,36.3118-24.6899,59.6126-24.6899,23.2724,0,44.3338,9.4394,59.5844,24.6899,15.25,15.2503,24.6895,36.3115,24.6895,59.6123,0,23.2725-9.4395,44.334-24.6895,59.5845-15.2506,15.2505-36.312,24.6897-59.5844,24.6897-23.3008,0-44.3622-9.4392-59.6126-24.6897-15.2504-15.2505-24.6898-36.312-24.6898-59.5845,0-23.3008,9.4394-44.362,24.6898-59.6123Z"/>
    <path class="cls-1" d="M1549.67261,1749.9971c0-25.7954-10.4598-49.1246-27.3544-66.0188-16.8945-16.8946-40.2236-27.3543-65.9906-27.3543-25.7952,0-49.1243,10.4597-66.0189,27.3543-16.8944,16.8942-27.3542,40.2234-27.3542,66.0188,0,25.7671,10.4598,49.0962,27.3542,65.9904,16.8946,16.8946,40.2237,27.3545,66.0189,27.3545,25.767,0,49.0961-10.4599,65.9906-27.3545,16.8946-16.8942,27.3544-40.2233,27.3544-65.9904ZM1456.32761,1834.2712c-23.3007,0-44.3621-9.4394-59.6125-24.6899-15.2504-15.2503-24.6898-36.3118-24.6898-59.5842,0-23.3008,9.4394-44.3623,24.6898-59.6126,15.2504-15.2502,36.3118-24.6897,59.6125-24.6897,23.2725,0,44.3339,9.4395,59.5844,24.6897,15.2504,15.2503,24.6897,36.3118,24.6897,59.6126,0,23.2724-9.4393,44.3339-24.6897,59.5842-15.2505,15.2505-36.3119,24.6899-59.5844,24.6899Z"/>
    <path class="cls-1" d="M1749.99701,1950.2932c-25.7952,0-49.1244,10.4597-66.0188,27.3543-16.8946,16.8945-27.3544,40.2236-27.3544,66.019,0,25.7668,10.4598,49.1243,27.3544,66.0188,16.8944,16.8945,40.2236,27.3259,66.0188,27.3259,25.7669,0,49.1245-10.4314,65.9907-27.3259,16.8945-16.8945,27.354-40.252,27.354-66.0188,0-25.7954-10.4595-49.1245-27.354-66.019-16.8662-16.8946-40.2238-27.3543-65.9907-27.3543ZM1809.58141,2103.2507c-15.2506,15.2503-36.312,24.6897-59.5844,24.6897-23.3008,0-44.3622-9.4394-59.6126-24.6897-15.2504-15.2505-24.6898-36.3117-24.6898-59.5842s9.4394-44.3623,24.6898-59.6128c15.2504-15.2502,36.3118-24.6897,59.6126-24.6897,23.2724,0,44.3338,9.4395,59.5844,24.6897,15.25,15.2505,24.6895,36.3403,24.6895,59.6128s-9.4395,44.3337-24.6895,59.5842Z"/>
    <path class="cls-1" d="M1977.64741,1683.9783c-16.8946,16.8942-27.3545,40.2234-27.3545,66.0188,0,25.7671,10.4599,49.0962,27.3545,65.9904,16.8945,16.8946,40.2236,27.3545,66.019,27.3545,25.7671,0,49.1245-10.4599,66.019-27.3545,16.8946-16.8942,27.3257-40.2233,27.3257-65.9904,0-25.7954-10.4311-49.1246-27.3257-66.0188-16.8945-16.8946-40.2519-27.3543-66.019-27.3543-25.7954,0-49.1245,10.4597-66.019,27.3543ZM2127.94031,1749.9971c0,23.2724-9.4394,44.3339-24.6899,59.5842-15.25,15.2505-36.3115,24.6899-59.584,24.6899s-44.3623-9.4394-59.6128-24.6899c-15.2505-15.2503-24.6895-36.3118-24.6895-59.5842,0-23.3008,9.439-44.3623,24.6895-59.6126,15.2505-15.2502,36.3403-24.6897,59.6128-24.6897s44.334,9.4395,59.584,24.6897c15.2505,15.2503,24.6899,36.3118,24.6899,59.6126Z"/>
    <path class="cls-1" d="M1749.99701,2186.5325c241.0869,0,436.5356-195.4488,436.5356-436.5354,0-241.115-195.4487-436.5354-436.5356-436.5354-241.115,0-436.5354,195.4204-436.5354,436.5354,0,241.0866,195.4204,436.5354,436.5354,436.5354ZM1352.38121,1749.9971c0-41.5559,24.378-77.4141,59.6409-94.0535,32.7969-118.1199,125.83-211.1245,243.9214-243.9211,16.6393-35.2632,52.4976-59.6412,94.0535-59.6412s77.414,24.378,94.0254,59.6412c118.1196,32.7966,211.1528,125.8012,243.9497,243.9211,35.2343,16.6394,59.6406,52.4976,59.6406,94.0535s-24.4063,77.3859-59.6406,94.0251c-32.7969,118.1199-125.8301,211.1528-243.9497,243.9497-16.6397,35.2346-52.4695,59.6409-94.0254,59.6409s-77.4142-24.4063-94.0535-59.6409c-118.1198-32.7969-211.1245-125.8298-243.9214-243.9497-35.2629-16.6392-59.6409-52.4692-59.6409-94.0251Z"/>
    <path class="cls-1" d="M2343.57171,1810.9988c-89.0362,552.0471-775.7574,695.2817-1080.255,267.1086-82.715-116.334-92.126-194.1167-116.9292-328.1103-30.2173,228.841,131.1024,463.9465,331.9371,564.8032,365.3574,183.4299,807.6191-44.2205,872.5889-441.2127,7.852-47.9904,9.0141-75.4582,2.6645-123.5905-13.3794,72.3686,1.4741-10.2613-10.0063,61.0017Z"/>
    <path class="cls-1" d="M1749.99701,1085.9248c-366.7748,0-664.0725,297.2974-664.0725,664.0723,0,33.3354,2.4945,66.1323,7.2283,98.1638,9.4111-246.3025,100.8001-183.4583,116.6457-6.2363,15.1654,169.2568,77.1024,89.2348,84.3874-90.7371,0-.3967-.0283-.7935-.0283-1.1904,0-8.2771.2551-16.4976.6803-24.6614v-.3684c.0283-3.1465.2551-6.1797.5952-9.1277,17.4899-235.7859,214.2993-421.6819,454.5639-421.6819,251.7451,0,455.811,204.0945,455.811,455.8394-1.5024,187.937,101.9907,61.937,122.9956-61.0865,21.0044-122.967,76.3936-19.1057,83.1968,113.3858,1.3603-17.2632,2.041-34.6963,2.041-52.2993,0-366.7749-297.2979-664.0723-664.0444-664.0723Z"/>
  </g>
</svg>