<?xml version="1.0" encoding="utf-8"?>
<!-- Generator: Adobe Illustrator 22.0.1, SVG Export Plug-In . SVG Version: 6.00 Build 0)  -->
<!DOCTYPE svg PUBLIC "-//W3C//DTD SVG 1.1//EN" "http://www.w3.org/Graphics/SVG/1.1/DTD/svg11.dtd">
<svg version="1.1" xmlns="http://www.w3.org/2000/svg" xmlns:xlink="http://www.w3.org/1999/xlink" x="0px" y="0px"
	 viewBox="0 0 48 48" style="enable-background:new 0 0 48 48;" xml:space="preserve">
<style type="text/css">
	.st0{display:none;}
	.st1{display:inline;fill:#1C9957;}
	.st2{display:inline;fill:#3E7BF1;}
	.st3{display:inline;fill:#CBCCC9;}
	.st4{display:inline;fill:#EFEFEF;}
	.st5{display:inline;fill:#FFD73D;}
	.st6{display:inline;}
	.st7{fill:#D73F35;}
	.st8{display:inline;fill:#752622;}
	.st9{display:inline;fill:#FFFFFF;}
	.st10{fill:#3E7BF1;}
	.st11{fill:#CBCCC9;}
	.st12{fill:#FFD73D;}
	.st13{fill:none;stroke:#FFD73D;stroke-width:6;stroke-miterlimit:10;}
	.st14{fill:#1C9957;}
	.st15{clip-path:url(#SVGID_2_);fill:#1C9957;}
	.st16{clip-path:url(#SVGID_2_);fill:none;}
	.st17{clip-path:url(#SVGID_2_);}
	.st18{clip-path:url(#SVGID_2_);fill:#752622;}
	.st19{fill:#FFFFFF;}
	.st20{clip-path:url(#SVGID_2_);fill:#B3B3B3;}
	.st21{clip-path:url(#SVGID_2_);fill:#3E7BF1;}
	
		.st22{clip-path:url(#SVGID_2_);fill:none;stroke:#F1F1F1;stroke-width:4.5;stroke-linecap:round;stroke-linejoin:round;stroke-miterlimit:10;}
	.st23{clip-path:url(#SVGID_2_);fill:#FFD73D;}
	.st24{fill:#752622;}
</style>
<g id="Layer_1" class="st0">
	<path class="st1" d="M42,39V9c0-1.7-1.3-3-3-3H9C7.3,6,6,7.3,6,9v30c0,1.7,1.3,3,3,3h30C40.7,42,42,40.7,42,39z"/>
	<path class="st2" d="M9,42h30c1.7,0-15-16-15-16S7.3,42,9,42z"/>
	<path class="st3" d="M42,39V9c0-1.7-16,15-16,15S42,40.7,42,39z"/>
	<path class="st4" d="M39,42c1.7,0,3-1.3,3-3v-0.2L26.2,23L23,26.2L38.8,42H39z"/>
	<path class="st5" d="M42,9c0-1.7-1.3-3-3-3h-0.2L6,38.8V39c0,1.7,1.3,3,3,3h0.2L42,9.2V9z"/>
	<g class="st6">
		<g>
			<path class="st7" d="M36,2c-5.5,0-10,4.5-10,10c0,6.8,7.7,9.3,9.3,19.9c0.1,0.7,0.1,1.1,0.7,1.1s0.6-0.5,0.7-1.1
				C38.3,21.3,46,18.8,46,12C46,6.5,41.5,2,36,2z"/>
		</g>
	</g>
	<circle class="st8" cx="36" cy="12" r="3.5"/>
	<path class="st9" d="M14.5,12.5v2.1h3c-0.4,1.3-1.5,2.2-3,2.2c-1.8,0-3.3-1.5-3.3-3.3s1.5-3.3,3.3-3.3c0.8,0,1.6,0.3,2.2,0.8
		l1.5-1.5c-1-0.9-2.3-1.4-3.7-1.4c-3,0-5.5,2.5-5.5,5.5s2.5,5.5,5.5,5.5c4.8,0,5.6-4.3,5.2-6.5L14.5,12.5z"/>
</g>
<g id="Layer_1_copy">
	<path class="st10" d="M-272.7,31c4.9-4.9,16,6.2,20.9,1.3c4.9-4.9-6.2-16-1.3-20.9c4.9-4.9,16,6.2,20.9,1.3
		c4.9-4.9-6.2-16-1.3-20.9c4.9-4.9,16,6.2,20.9,1.3c4.9-4.9-6.2-16-1.3-20.9c4.9-4.9,16,6.2,20.9,1.3s-6.2-16-1.3-20.9l53.3-22.1
		l27.5,101.2l-138.5,113.5l-66.3-67.4L-272.7,31z"/>
	<path class="st11" d="M-198.6,343.8V143.4c0-11.1-106.9,100.2-106.9,100.2S-198.6,354.9-198.6,343.8z"/>
	<path class="st12" d="M3.4,103.6c0-1.7-1.3-3-3-3H0.1l-32.8,32.8v0.2c0,1.7,1.3,3,3,3h0.2l32.8-32.8V103.6z"/>
	<g>
		<path class="st13" d="M-185.8,146.2c4.9-4.9,16,6.2,20.9,1.3c4.9-4.9-6.2-16-1.3-20.9c4.9-4.9,16,6.2,20.9,1.3
			c4.9-4.9-6.2-16-1.3-20.9c4.9-4.9,16,6.2,20.9,1.3c4.9-4.9-6.2-16-1.3-20.9c4.9-4.9,16,6.2,20.9,1.3c4.9-4.9-6.2-16-1.3-20.9"/>
	</g>
	<circle class="st14" cx="-55.1" cy="16.6" r="8.2"/>
	<g>
		<defs>
			<path id="SVGID_1_" d="M38.1,48H9.9C4.4,48,0,43.6,0,38.1V9.9C0,4.4,4.4,0,9.9,0h28.2C43.6,0,48,4.4,48,9.9v28.2
				C48,43.6,43.6,48,38.1,48z"/>
		</defs>
		<clipPath id="SVGID_2_">
			<use xlink:href="#SVGID_1_"  style="overflow:visible;"/>
		</clipPath>
		<path class="st15" d="M48,48V0H0v48H48z"/>
		<path class="st16" d="M49.2,37l0.1,1c0.1,1.3,0.1,2.6,0.2,3.9c0.1,2.5,0.2,4.9,0.5,7.3c0.2,1.7,0.5,3.9,1.4,4.8
			c0.6,0.6,0.8,1.5,0.7,2.3c0.4,0.3,0.9,0.4,1.4,0.4c0.7,0,1.3-0.3,1.8-0.8c0.1-0.1,0.1-0.1,0.2-0.2c0.9-1.1,0.7-2.7-0.4-3.5
			c-1-0.8-1.6-2.9-2-4.6c-0.6-2.3-1-4.7-1.5-7.2c-0.2-1.3-0.5-2.6-0.7-3.9l-0.2-1c-0.5-2.5-1-5.3-2.5-7.8v1.6
			C48.9,32,49.1,34.6,49.2,37z"/>
		<g class="st17">
			<g>
				<path class="st7" d="M71.6-1.3c-5.5,0-10,4.5-10,10c0,6.8,7.7,9.3,9.3,19.9c0.1,0.7,0.1,1.1,0.7,1.1s0.6-0.5,0.7-1.1
					c1.7-10.6,9.3-13,9.3-19.9C81.6,3.2,77.1-1.3,71.6-1.3z"/>
			</g>
		</g>
		<circle class="st18" cx="71.6" cy="8.7" r="3.5"/>
		<g class="st17">
			<path class="st19" d="M10.2,15.7h7.2v2.7H6.2v-2.5l6.9-7.2H6.7V6h10.4v2.5L10.2,15.7z"/>
		</g>
		<path class="st16" d="M55.5,53.7c0.4,0.4,0.8,0.8,1.2,1.1C56.3,54.5,55.9,54.1,55.5,53.7z"/>
		<path class="st16" d="M53.2,51.4c0.4,0.4,0.7,0.7,1.1,1.1C53.9,52.1,53.6,51.7,53.2,51.4z"/>
		<path class="st16" d="M57.9,56.1c0.4,0.4,0.7,0.7,1.1,1.1C58.7,56.8,58.3,56.4,57.9,56.1z"/>
		<path class="st16" d="M50.8,49c0.4,0.4,0.8,0.8,1.1,1.1C51.6,49.8,51.2,49.4,50.8,49z"/>
		<path class="st16" d="M48.5,46.7c0.4,0.4,0.7,0.7,1.1,1.1C49.2,47.4,48.9,47.1,48.5,46.7z"/>
		<path class="st16" d="M32.7,30.8c0,0,0.1,0.1,0.1,0.1C32.8,30.9,32.7,30.8,32.7,30.8z"/>
		<path class="st16" d="M47.2,45.4c-0.3-0.3-0.7-0.7-1-1C46.5,44.7,46.8,45,47.2,45.4z"/>
		<path class="st20" d="M39-2.4v8.2l1,1l-0.5,0.5c-0.2,0.4,0.6,2.4,0.9,3.4l0.1,0.3c0.8,2.2,2.2,5.8-0.3,8.3
			c-2.5,2.5-6.1,1.2-8.6,0.2l0.3-0.7l-0.3,0.7l0,0c-1-0.4-2.9-1.1-3.4-0.9C28,19,28.8,21,29.1,22c0.8,2.2,1.9,4.9,0.8,7.3
			c-0.1,0.1-0.1,0.3-0.2,0.4l3.6,3.6l4.7-4.1l5.8,6.4l-11,6.6L48,48h23.6V-2.6L39-2.4z"/>
		<path class="st21" d="M43.7,35.5l-5.8-6.4l-4.7,4.1l-3.6-3.6c-0.1,0.2-0.3,0.4-0.4,0.6c-0.1,0.1-0.2,0.2-0.3,0.4
			c-0.6,0.6-1.4,1.1-2.3,1.3c-2.1,0.5-4.5-0.4-6.4-1.1c-1-0.4-2.9-1.1-3.4-0.9c-0.2,0.4,0.6,2.4,0.9,3.3c1,2.6,2.4,6.1-0.2,8.6
			c-2.5,2.5-6.1,1.2-8.6,0.2c-1-0.4-3-1.1-3.4-0.9c-0.2,0.4,0.6,2.4,0.9,3.3c1,2.6,2.4,6.1-0.2,8.6c-1,1-2.2,1.5-3.6,1.5
			c-0.1,0-0.2,0-0.3,0V64H48V48l-15.3-5.9L43.7,35.5z"/>
		<path class="st21" d="M2.9,49.6c0.1-0.3-0.2-1.2-0.5-2.1v2.1C2.7,49.7,2.8,49.7,2.9,49.6z"/>
		<polyline class="st22" points="27.9,27.9 33.2,33.2 37.9,29.1 43.7,35.5 32.7,42.1 48,48 		"/>
		<path class="st23" d="M40.5,11l-0.1-0.3c-0.4-1-1.1-2.9-0.9-3.4L40,6.8l-3.5-3.5L36,3.8c-2.5,2.5-1.2,6.1-0.2,8.6l0.2,0.4
			c0.6,1.7,0.9,2.7,0.8,2.9c-0.4,0.2-2.4-0.5-3.4-0.9c-0.6-0.2-1.3-0.5-2-0.7c-1-0.3-2.2-0.6-3.5-0.5c-1.1,0.1-2.2,0.5-3.2,1.4
			c-2.5,2.5-1.2,6.1-0.2,8.6c0.3,0.8,0.6,1.5,0.8,2.1c0.3,0.9,0.2,1.2,0.2,1.2c-0.1,0-0.5,0.1-2.1-0.4c-0.4-0.2-0.9-0.3-1.3-0.5
			c-2.6-1-6.1-2.4-8.6,0.2c-0.5,0.5-0.8,1-1,1.5c-1,2.3,0,5.1,0.8,7.2c0.4,1,1.1,2.9,0.9,3.3c-0.4,0.2-2.4-0.5-3.4-0.9
			c-2.5-1-5.8-2.3-8.4-0.1c-0.1,0.1-0.2,0.2-0.3,0.2C-0.4,40.2,1,43.7,2,46.3c0.1,0.3,0.3,0.8,0.5,1.2c0.3,0.9,0.6,1.8,0.5,2.1
			c-0.1,0-0.3,0-0.5,0c-0.8-0.1-2.2-0.6-2.9-0.9c-2.6-1-6.1-2.4-8.6,0.2l-0.5,0.5l3,3l0.5,0.5l0.5-0.5c0.4-0.2,2.4,0.5,3.4,0.9
			c1.4,0.6,3.1,1.2,4.7,1.3c0.1,0,0.2,0,0.3,0c1.4,0,2.7-0.5,3.6-1.5c2.5-2.5,1.2-6.1,0.2-8.6c-0.4-1-1.1-2.9-0.9-3.3
			c0.4-0.2,2.4,0.5,3.4,0.9c2.6,1,6.1,2.4,8.6-0.2c2.5-2.5,1.2-6.1,0.2-8.6c-0.4-1-1.1-2.9-0.9-3.3c0.4-0.2,2.4,0.5,3.4,0.9
			c1.9,0.7,4.2,1.6,6.4,1.1c0.9-0.2,1.6-0.7,2.3-1.3c0.1-0.1,0.2-0.2,0.3-0.4c0.2-0.2,0.3-0.4,0.4-0.6c0.1-0.1,0.2-0.3,0.2-0.4
			c1.1-2.4,0.1-5.1-0.8-7.3c-0.4-1-1.1-2.9-0.9-3.3c0.4-0.2,2.4,0.5,3.4,0.9l0,0l0.3-0.7l-0.3,0.7c2.6,1,6.1,2.4,8.6-0.2
			C42.7,16.8,41.4,13.2,40.5,11z"/>
		<g class="st17">
			<g>
				<g>
					<path class="st7" d="M37.9,0c-5.6,0-10.1,4.4-10.1,9.8c0,6.6,7.7,9.1,9.4,19.4c0.1,0.7,0.1,1.1,0.7,1.1s0.6-0.5,0.7-1.1
						C40.3,18.8,48,16.4,48,9.8C48,4.4,43.5,0,37.9,0z"/>
				</g>
			</g>
			<path class="st24" d="M33.1,7.2c0-0.6,0.2-1.2,0.6-1.8s1-1.1,1.7-1.5C36.1,3.5,37,3.3,38,3.3c0.9,0,1.8,0.2,2.5,0.5
				s1.3,0.8,1.7,1.4s0.6,1.2,0.6,1.9c0,0.5-0.1,1-0.3,1.4c-0.2,0.4-0.5,0.7-0.8,1c-0.3,0.3-0.9,0.8-1.7,1.5
				c-0.2,0.2-0.4,0.4-0.5,0.5c-0.1,0.1-0.2,0.3-0.3,0.4C39.1,12,39,12.2,39,12.3c0,0.1-0.1,0.3-0.2,0.6c-0.1,0.7-0.5,1-1.2,1
				c-0.3,0-0.6-0.1-0.9-0.3c-0.2-0.2-0.3-0.5-0.3-1c0-0.5,0.1-1,0.3-1.4c0.2-0.4,0.4-0.7,0.7-1s0.7-0.6,1.1-1
				c0.4-0.4,0.7-0.6,0.9-0.8c0.2-0.2,0.3-0.4,0.5-0.6s0.2-0.5,0.2-0.7c0-0.5-0.2-0.9-0.6-1.3c-0.4-0.3-0.9-0.5-1.5-0.5
				c-0.7,0-1.2,0.2-1.6,0.5c-0.3,0.3-0.6,0.9-0.9,1.5c-0.2,0.7-0.6,1.1-1.3,1.1c-0.4,0-0.7-0.1-0.9-0.4C33.2,7.8,33.1,7.5,33.1,7.2z
				 M37.8,17.6c-0.4,0-0.7-0.1-1-0.4c-0.3-0.2-0.4-0.6-0.4-1c0-0.4,0.1-0.7,0.4-1c0.3-0.3,0.6-0.4,1.1-0.4c0.4,0,0.8,0.1,1,0.4
				c0.3,0.3,0.4,0.6,0.4,1c0,0.4-0.1,0.8-0.4,1C38.5,17.5,38.2,17.6,37.8,17.6z"/>
		</g>
	</g>
</g>
</svg>
